<mxfile host="65bd71144e">
    <diagram id="Muk35M1s3Lf1WXlXDoJJ" name="Page-1">
        <mxGraphModel dx="1128" dy="561" grid="1" gridSize="10" guides="1" tooltips="1" connect="1" arrows="1" fold="1" page="1" pageScale="1" pageWidth="1654" pageHeight="2336" math="0" shadow="0">
            <root>
                <mxCell id="0"/>
                <mxCell id="1" parent="0"/>
                <mxCell id="2" value="" style="rounded=0;whiteSpace=wrap;html=1;" parent="1" vertex="1">
                    <mxGeometry x="230" y="100" width="210" height="470" as="geometry"/>
                </mxCell>
                <mxCell id="3" value="ECStack调用栈" style="text;html=1;align=center;verticalAlign=middle;resizable=0;points=[];autosize=1;strokeColor=none;" parent="1" vertex="1">
                    <mxGeometry x="230" y="70" width="100" height="20" as="geometry"/>
                </mxCell>
                <mxCell id="4" value="" style="rounded=0;whiteSpace=wrap;html=1;" parent="1" vertex="1">
                    <mxGeometry x="520" y="100" width="510" height="470" as="geometry"/>
                </mxCell>
                <mxCell id="5" value="堆内存" style="text;html=1;align=center;verticalAlign=middle;resizable=0;points=[];autosize=1;strokeColor=none;" parent="1" vertex="1">
                    <mxGeometry x="670" y="70" width="50" height="20" as="geometry"/>
                </mxCell>
                <mxCell id="6" value="String&lt;br&gt;setTimeout&lt;br&gt;window&lt;br&gt;foo: 0xa00&lt;br&gt;fn: 0xb00" style="rounded=0;whiteSpace=wrap;html=1;align=left;" parent="1" vertex="1">
                    <mxGeometry x="550" y="130" width="120" height="110" as="geometry"/>
                </mxCell>
                <mxCell id="7" value="GO对象" style="text;html=1;align=center;verticalAlign=middle;resizable=0;points=[];autosize=1;strokeColor=none;" parent="1" vertex="1">
                    <mxGeometry x="550" y="110" width="60" height="20" as="geometry"/>
                </mxCell>
                <mxCell id="8" value="" style="rounded=0;whiteSpace=wrap;html=1;align=left;" parent="1" vertex="1">
                    <mxGeometry x="250" y="440" width="160" height="120" as="geometry"/>
                </mxCell>
                <mxCell id="9" value="GEC(全局执行上下文)" style="text;html=1;align=center;verticalAlign=middle;resizable=0;points=[];autosize=1;strokeColor=none;" parent="1" vertex="1">
                    <mxGeometry x="250" y="410" width="130" height="20" as="geometry"/>
                </mxCell>
                <mxCell id="10" value="" style="rounded=0;whiteSpace=wrap;html=1;align=left;" parent="1" vertex="1">
                    <mxGeometry x="710" y="280" width="120" height="60" as="geometry"/>
                </mxCell>
                <mxCell id="11" value="bar函数对象0xb00" style="text;html=1;align=center;verticalAlign=middle;resizable=0;points=[];autosize=1;strokeColor=none;" parent="1" vertex="1">
                    <mxGeometry x="705" y="250" width="110" height="20" as="geometry"/>
                </mxCell>
                <mxCell id="12" value="VO: GO" style="rounded=0;whiteSpace=wrap;html=1;align=left;" parent="1" vertex="1">
                    <mxGeometry x="260" y="450" width="120" height="40" as="geometry"/>
                </mxCell>
                <mxCell id="13" value="开始执行代码&lt;br&gt;var fn = 0xb00" style="rounded=0;whiteSpace=wrap;html=1;align=left;" parent="1" vertex="1">
                    <mxGeometry x="260" y="500" width="120" height="50" as="geometry"/>
                </mxCell>
                <mxCell id="17" value="bar: 0xb00" style="rounded=0;whiteSpace=wrap;html=1;align=left;" parent="1" vertex="1">
                    <mxGeometry x="710" y="130" width="120" height="110" as="geometry"/>
                </mxCell>
                <mxCell id="18" value="AO对象" style="text;html=1;align=center;verticalAlign=middle;resizable=0;points=[];autosize=1;strokeColor=none;" parent="1" vertex="1">
                    <mxGeometry x="710" y="110" width="60" height="20" as="geometry"/>
                </mxCell>
                <mxCell id="19" value="" style="rounded=0;whiteSpace=wrap;html=1;align=left;" parent="1" vertex="1">
                    <mxGeometry x="550" y="280" width="120" height="60" as="geometry"/>
                </mxCell>
                <mxCell id="20" value="foo函数对象0xa00" style="text;html=1;align=center;verticalAlign=middle;resizable=0;points=[];autosize=1;strokeColor=none;" parent="1" vertex="1">
                    <mxGeometry x="545" y="250" width="110" height="20" as="geometry"/>
                </mxCell>
                <mxCell id="28" value="" style="rounded=0;whiteSpace=wrap;html=1;align=left;" parent="1" vertex="1">
                    <mxGeometry x="870" y="125" width="120" height="110" as="geometry"/>
                </mxCell>
                <mxCell id="29" value="AO对象" style="text;html=1;align=center;verticalAlign=middle;resizable=0;points=[];autosize=1;strokeColor=none;" parent="1" vertex="1">
                    <mxGeometry x="870" y="105" width="60" height="20" as="geometry"/>
                </mxCell>
                <mxCell id="30" value="" style="shape=image;verticalLabelPosition=bottom;labelBackgroundColor=#ffffff;verticalAlign=top;aspect=fixed;imageAspect=0;image=data:image/png,iVBORw0KGgoAAAANSUhEUgAAAdQAAAFuCAYAAAA4dul/AAAMbGlDQ1BJQ0MgUHJvZmlsZQAASImVVwdYU8kWnluSkJDQAghICb0JIjWAlBBa6L3ZCEkgocSYEFTsZVHBtYsoVnQVRMGyAmLHriyKvS8WVJR1URcbKm9CArruK9873zf3/jlz5j/lzuTeA4DmB65Eko9qAVAgLpQmhAUx0tIzGKSngACGAzqwAVpcnkzCiouLAlAG73+XdzcAorhfdVJw/XP+v4oOXyDjAYCMhTiLL+MVQHwcAHw9TyItBICo0FtOLpQo8GyIdaUwQIhXKXCOElcrcJYSHx6wSUpgQ3wZADUqlyvNAUDjHtQzing5kEfjM8QuYr5IDIDmCIj9eUIuH2JF7CMKCiYqcAXEdtBeAjGMBzCzvuPM+Rt/1hA/l5szhJV5DYhasEgmyedO/T9L87+lIF8+6MMGDqpQGp6gyB/W8FbexEgFpkLcLc6KiVXUGuIPIr6y7gCgFKE8PFlpjxrzZGxYP6APsQufGxwJsTHEoeL8mCiVPitbFMqBGO4WdIqokJMEsQHECwWykESVzWbpxASVL7QhW8pmqfTnuNIBvwpfD+R5ySwV/xuhgKPixzSKhUmpEFMgtioSpcRArAGxsywvMVJlM7pYyI4ZtJHKExTxW0GcIBCHBSn5saJsaWiCyr60QDaYL7ZZKOLEqPC+QmFSuLI+2CkedyB+mAt2WSBmJQ/yCGRpUYO58AXBIcrcsecCcXKiiueDpDAoQbkWp0jy41T2uIUgP0yht4DYXVaUqFqLpxTCzankx7MlhXFJyjjx4lxuRJwyHnwZiAJsEAwYQA5HFpgIcoGorbuxG/5SzoQCLpCCHCAATirN4IrUgRkxvCaCYvAHRAIgG1oXNDArAEVQ/2VIq7w6geyB2aKBFXngKcQFIBLkw9/ygVXiIW8p4AnUiP7hnQsHD8abD4di/t/rB7XfNCyoiVJp5IMeGZqDlsQQYjAxnBhKtMeNcH/cF4+C10A4XHEm7j2Yxzd7wlNCO+ER4Tqhg3B7gmiu9Icoo0EH5A9V1SLr+1rgNpDTAw/C/SA7ZMb1cSPghLtDPyw8AHr2gFq2Km5FVRg/cP8tg++ehsqO7EJGycPIgWS7H1dqOGh4DLEoav19fZSxZg3Vmz0086N/9nfV58N75I+W2EJsP3YWO4Gdxw5jjYCBHcOasFbsiAIP7a4nA7tr0FvCQDx5kEf0D3+DT1ZRSZlLrUuXy2flXKFgSqHi4LEnSqZKRTnCQgYLvh0EDI6Y5zyC4eri6gqA4l2j/Pt6Gz/wDkH0W7/p5v0OgN+x/v7+Q990EccA2OsFj//Bbzo7JgDa6gCcO8iTS4uUOlxxIcB/CU140gyBKbAEdjAfV+AJfEEgCAERIBYkgXQwHkYvhPtcCiaD6WAOKAFlYBlYDdaBTWArqAa7wT7QCA6DE+AMuAgug+vgLtw9neAl6AHvQB+CICSEhtARQ8QMsUYcEVeEifgjIUgUkoCkI5lIDiJG5Mh0ZB5ShqxA1iFbkBpkL3IQOYGcR9qR28hDpAt5g3xCMZSK6qImqA06EmWiLDQSTULHoTnoJLQYnY8uQSvQKnQX2oCeQC+i19EO9CXaiwFMHdPHzDEnjImxsVgsA8vGpNhMrBQrx6qwOqwZPuerWAfWjX3EiTgdZ+BOcAeH48k4D5+Ez8QX4+vwarwBP4VfxR/iPfhXAo1gTHAk+BA4hDRCDmEyoYRQTthOOEA4Dc9SJ+EdkUjUJ9oSveBZTCfmEqcRFxM3EOuJx4ntxMfEXhKJZEhyJPmRYklcUiGphLSWtIt0jHSF1En6oKauZqbmqhaqlqEmVpurVq62U+2o2hW1Z2p9ZC2yNdmHHEvmk6eSl5K3kZvJl8id5D6KNsWW4kdJouRS5lAqKHWU05R7lLfq6uoW6t7q8eoi9dnqFep71M+pP1T/SNWhOlDZ1LFUOXUJdQf1OPU29S2NRrOhBdIyaIW0JbQa2knaA9oHDbqGswZHg68xS6NSo0HjisYrTbKmtSZLc7xmsWa55n7NS5rdWmQtGy22Fldrplal1kGtm1q92nTtUdqx2gXai7V3ap/Xfq5D0rHRCdHh68zX2apzUucxHaNb0tl0Hn0efRv9NL1Tl6hrq8vRzdUt092t26bbo6ej566XojdFr1LviF6HPqZvo8/Rz9dfqr9P/4b+p2Emw1jDBMMWDasbdmXYe4PhBoEGAoNSg3qD6wafDBmGIYZ5hssNGw3vG+FGDkbxRpONNhqdNuoerjvcdzhveOnwfcPvGKPGDsYJxtOMtxq3GveamJqEmUhM1pqcNOk21TcNNM01XWV61LTLjG7mbyYyW2V2zOwFQ4/BYuQzKhinGD3mxubh5nLzLeZt5n0WthbJFnMt6i3uW1IsmZbZlqssWyx7rMysoq2mW9Va3bEmWzOthdZrrM9av7extUm1WWDTaPPc1sCWY1tsW2t7z45mF2A3ya7K7po90Z5pn2e/wf6yA+rg4SB0qHS45Ig6ejqKHDc4to8gjPAeIR5RNeKmE9WJ5VTkVOv00FnfOcp5rnOj86uRViMzRi4feXbkVxcPl3yXbS53R+mMihg1d1TzqDeuDq4810rXa240t1C3WW5Nbq/dHd0F7hvdb3nQPaI9Fni0eHzx9PKUetZ5dnlZeWV6rfe6ydRlxjEXM895E7yDvGd5H/b+6OPpU+izz+dPXyffPN+dvs9H244WjN42+rGfhR/Xb4tfhz/DP9N/s39HgHkAN6Aq4FGgZSA/cHvgM5Y9K5e1i/UqyCVIGnQg6D3bhz2DfTwYCw4LLg1uC9EJSQ5ZF/Ig1CI0J7Q2tCfMI2xa2PFwQnhk+PLwmxwTDo9Tw+mJ8IqYEXEqkhqZGLku8lGUQ5Q0qjkajY6IXhl9L8Y6RhzTGAtiObErY+/H2cZNijsUT4yPi6+Mf5owKmF6wtlEeuKExJ2J75KCkpYm3U22S5Ynt6RopoxNqUl5nxqcuiK1I21k2oy0i+lG6aL0pgxSRkrG9ozeMSFjVo/pHOsxtmTsjXG246aMOz/eaHz++CMTNCdwJ+zPJGSmZu7M/MyN5VZxe7M4Weuzenhs3hreS34gfxW/S+AnWCF4lu2XvSL7eY5fzsqcLmGAsFzYLWKL1ole54bnbsp9nxebtyOvPz81v75ArSCz4KBYR5wnPjXRdOKUie0SR0mJpGOSz6TVk3qkkdLtMkQ2TtZUqAs/6lvldvKf5A+L/Isqiz5MTpm8f4r2FPGU1qkOUxdNfVYcWvzLNHwab1rLdPPpc6Y/nMGasWUmMjNrZsssy1nzZ3XODptdPYcyJ2/Ob3Nd5q6Y+9e81HnN803mz57/+Kewn2pLNEqkJTcX+C7YtBBfKFrYtsht0dpFX0v5pRfKXMrKyz4v5i2+8POonyt+7l+SvaRtqefSjcuIy8TLbiwPWF69QntF8YrHK6NXNqxirCpd9dfqCavPl7uXb1pDWSNf01ERVdG01mrtsrWf1wnXXa8Mqqxfb7x+0fr3G/gbrmwM3Fi3yWRT2aZPm0Wbb20J29JQZVNVvpW4tWjr020p287+wvylZrvR9rLtX3aId3RUJ1SfqvGqqdlpvHNpLVorr+3aNXbX5d3Bu5vqnOq21OvXl+0Be+R7XuzN3HtjX+S+lv3M/XW/Wv+6/gD9QGkD0jC1oadR2NjRlN7UfjDiYEuzb/OBQ86Hdhw2P1x5RO/I0qOUo/OP9h8rPtZ7XHK8+0TOicctE1runkw7ee1U/Km205Gnz50JPXPyLOvssXN+5w6f9zl/8ALzQuNFz4sNrR6tB37z+O1Am2dbwyWvS02XvS83t49uP3ol4MqJq8FXz1zjXLt4PeZ6+43kG7dujr3ZcYt/6/nt/Nuv7xTd6bs7+x7hXul9rfvlD4wfVP1u/3t9h2fHkYfBD1sfJT66+5j3+OUT2ZPPnfOf0p6WPzN7VvPc9fnhrtCuyy/GvOh8KXnZ113yh/Yf61/Zvfr1z8A/W3vSejpfS1/3v1n81vDtjr/c/2rpjet98K7gXd/70g+GH6o/Mj+e/ZT66Vnf5M+kzxVf7L80f438eq+/oL9fwpVyBz4FMDjQ7GwA3uwAgJYOAB32bZQxyl5wQBBl/zqAwH/Cyn5xQDwBqIPf7/Hd8OvmJgB7tsH2C/Jrwl41jgZAkjdA3dyGhkpk2W6uSi4q7FMID/r738KejbQSgC/L+vv7qvr7v2yFwcLe8bhY2YMqhAh7hs0xX7IKssC/EWV/+l2OP96BIgJ38OP9X43LkPcCLxuzAAAAbGVYSWZNTQAqAAAACAAEARoABQAAAAEAAAA+ARsABQAAAAEAAABGASgAAwAAAAEAAgAAh2kABAAAAAEAAABOAAAAAAAAAJAAAAABAAAAkAAAAAEAAqACAAQAAAABAAAB1KADAAQAAAABAAABbgAAAACoUSrNAAAACXBIWXMAABYlAAAWJQFJUiTwAABAAElEQVR4AeydB3yURfrHn2w2vXeSQAIhdJAqSBEERBQRxApiOcvZ23menvWvnneW87w7yx2WU7E3LIgNFJQiShGkBwgtCem99/88s7yz7242yWbZbHaT3/AJO+/0+b7J/t6ZeWZer6SkpGaCAwEQAAEQAAEQOCkChpPKjcwgAAIgAAIgAAKSAAQVvwggAAIgAAIg4AQCEFQnQEQRIAACIAACIABBxe8ACIAACIAACDiBAATVCRBRBAiAAAiAAAhAUPE7AAIgAAIgAAJOIABBdQJEFAECIAACIAACRiAAARDwTAIv3F9AIwfW0ZrNAfTwixGtduLU4bX07N2F1NDoReffEUelFa5/jr5sTgXdcHEZxUQ0kZ9PM3l5NVPKnKRW24wIEPBEAhBUcdd8giMpathUCoxJIoNvgLyPpem/Uv5vqzzxnjq9zQmTLibf0Ggqz9hDhbt/dHr57lJgfHwknXPOBOrbN44CAnxlszZv3k8ffviDuzRRtWPK6Bo6b1qVvE7PaPvPeNcBX+rdq4EMXkTP/bmQrnowRpXjCs/V55fTIzcVu6Iq1AECXUrAeO6559KXX37ZpY3oysqjT5lJqfPvJvHIbNEMn8DwbiGo3uIBwTcslqi5maoLjln00d6LxNMXkrdfEAXGpXRbQb3ooql0003niV8Dy9+D0NAgtxTUf95TKG9fbZ0XLV0e0uatrK71ojWbAmjmhGo649RqGpBUTweO+bSZx5mRN19apop79s0w+mpdIGUXeKsweECguxAwxsaKL9se6gw+ftT/vD8oMa0ry6fKnEOSRsnBzd2CSuyYcyj5rOtlX37952KqKzd9EXeLzjmpE4GB/nTDDXOVmJaVVVFmZr4sfdOmfU6qxXnF8Mg0NrJRFvjxqiC7Cn5sSYQUVE789F1FtODOOLvyOSNReEiTLObIcSP9+50wZxSJMkDALQm0PVfklk12XqOCEwaSl7cJQdb69ylj9RvOK7wblZS37VvyE6Pc0sPbu1GvzF0ZPbo/eXub1hW/+moTPfPMh+ZIN/TddlmpbJWYdKAn/hduVwtZzHhUyqPT0YNrKSSoicorXbOW6mM0HReeX4RRqV03C4k8loBr/qLcFE9AdB/VsqK965UfHksCR1e+TPs/epxyt6ywjOgmV/36xauerFq1Vfnd0cMj00F962XTft7h3yFR/NsrJvHlWe07LzeJsiv7WN9gOZ3uyrpRFwi4gkCPG6H2Gj+ffAJN006h/UYqxrGjZlPDoEnqujxrH5Uc2KSuA6KTKHLIZLkWeXzjx9Tc2KDi2BPSZyiF9h1JTfW1lP3zJxZxWp3lmXup7MgOiho+jSIGnkYBUb2pKu8w5WxeTuXHdlvksb7wMhgpZtRZFJw4iIJ6pRBf1xRlUeGedS3WNbX6uAx9HxOnLKSG6nJVdHNTI2WufUddax5jQIioa7Z2qT6rctOp9NA2dd2aJ2LQRIoYcKpYc+0vk1RmH6Di/T9TycEtNrOEDxhPIYmDqa6iSIo2X0cOnkwhvYdQbUkuFe1bTzxKdqa7+urZFBFhWnscMaKfKvr88yfTzJmj1fXOnYfJlsgajd60ePFM4rzx8VFUVVVDBw5k0RdfbKS9e9teqx45sj/NmTOe+vdPkMZPWVmF9Ntv6fTee6upqantlz9dOrtSte3zNYHKb49ntVhH5eLZOOmsidX0l5ci7MmGNCAAAnYScJmgsrGHr68v1dbW2tk028n8/f1lGc083+WAS5p5DfHaqbWLO/U8iyAWDr2ghqeOoz7Tr5Jp8ravpHrx5a93MaNnE4syO2tB1eosE1OmybNvkEKq5Q0QlsVRw6bRoRX/prxfv9aCLT5ZrActfISMAaEW4YFx/YTIT6GkGVfTtud/p+K0+lTACY91HznYlqBym5JnXWedncqO7mxTUA1GPxp06cMU1n+sRV5+CIgbN5d4FuDAsiepucnyYSRh4oXyYaSxrlo+LMSOmaPyc1vChTiHpYwReZ9Q4SfrWbRoBrEoWrtp006xCBo0qE8LQU1OjqPnnruFQkIsBY0FcvbscfT++z/QK6/YNvS7884Lad68iRZ1sCCPGzeQFiyYQrfd9gJlZ7e+zj1DGBZp7te9LX+PtbjWPnmaNyy4SVr9tpbGmeG+couMM0tEWSDgvgRcJqiRkZFSUEtKSqi62vyl0BE0QUFBFBYWJkYDVcTlOOLytn9LviHRMmtgbF/yj0yQfhZQ/kLXXGm67dGUFu/IZ2i/UTJbbXEOlWftFdt0+opRnGl01Hf2jZQvRmHNzSYDDq38oF79adjVz2qXJPNm7hGi1EhB8akUGNuPjIGmkZaWyN4+Wgublr+urNBCOMO43VbWr1pa/efAix9UYsosS3lEKvKFp54qH2JY/PvPv4sOfvq0Ppvys0Uyi2ljbSXxtiVvf3G/hZCy44eOzLXvUnX+UZX+ZDwbNuyiyEjTA0piYrTwmxjyKLOmpk4VvXlzmvKzxyCGd//97x3k72/aVlNaWkn792dSeHgwpaYmSMOmRYumU05OkRyt6jNffvmZSkz5gTAtLYMqK2to4MA+QpwDZBuWLLmD5s9/WJ/Nwj8w2TTdy4EHjnbcUjdHWNeyoPIo9RSxh3XHflM/LCpx4sX5M8wj6sLSHr3C5ESqKMpdCbhMUMvLyykqKkp88YRLFh0VVU1Mm5qaxJeQ+Y+0o2CPfP0flSX+tAuUBWz658+4xAKW97amf/4P1QYWIRYaHjXzyM7aunjARfertEdXvUrZYrpZ73j0mjhlkT6ITraPtSU5tPft+1SZp967TG6bUQE2PH7hcXIkyVH1VaX024vXqelln6AIGnXrq7KM6OHTiddk6yttPxDVFB2nHUtuoqaGWllLzMhZQoT/KP3xE+aLkfxz0m/rv4iICCF4pi9t/n2rqzMLo3X6Rx99SwX9/vdziEes7B555M02R4iXXTZTiSmL7003/UtN006ePIwee+x3UlSvu26OhaCyEF92makOFtO7736Jtm07KOvkNr/22t2UlBQrR73z5k2i5ct/knHW//n7mmZmeCtMO7PD1lnlNRsnaWuw/RIb7BJUb29v9XfLhRQVFYkHP/tmiC47x/y32tnibbPDCAQBFxJw2SMjf7kVFpqmslhUAwJMByjY09fAwEA5Mm1sbJRl1Nebn9Ltye8uaXhUefjLFyyak7XuPXXtH5Wo/OwJTR4hRtCmMD5UwVpMOQ2H73vvIfZ2qeOHE80dE8KvX6utryymjB9OCJgYsfL0b2suffk/lJhyGn4A0dar/cLjW8smw0PDQik4JFj+BATa//vVZqFWkfrp2oceel2JKSfbsGE3HTx4XObgEad+bXby5OFKiHfsOKTElBPzQ+Kjj74p8/F/F110uvJbe4wnLGaLSlpOV1untXW995B5RJoQYzn1bis9h/n4+CiuzJcFtjU3blgtLXmogN59Mo+2vp9Fo4eYHoyO53vTq8tMMwKt5UU4CHg6AZcJKoPSRJWfbu0V1e4iptz/muJsC7HgsOqCTP6QTpuK1q6DEgZpXjHd+bbyu6NHE35uW8GO71s0Ub8+zOuirTlbxlkNNRUyuU+waXajtbyuCOeDHtgVF5dTXl7LUfa335r3Lw8c2Fs1KSXF/DCwYsXPKlzzHD6cQxUVpiUHbfpZi7P1WefgM2VltZjrPeH8Tox2tWtnfPIJTudMqaLJ4jM6opHEMzC9/WUwTbw80aERtTPahDJAwFUEXCqo3CkWVW3KqD1R1cSUn+B5dNvQYN8TtavgdbSe+rKCFlm0qU2OMBgt18SCTqyvclzViQMn2O+Ojqd82TU11LVYB5bhwvqZT2ti5x/eS35a/6dfw9bHcZnsvLwt+ejTuMrv42ManZWUmKcy9XVnZJgOhOAwnsLVnN5/9GieFmzxqQlqQEDrxkbaNG9MpOVau0VBbVwMSTErcWecVvTTdn/67ucAYoOpqhovMZoluvzcCvrulew2WoUoEOgeBFy2hqrHpYkqGyq1tqba3cSU+99ktdVGz8SW33hiew/HNVSZj2+zlbarw7z9TBavzY3mL2zrNjWJOIPRVxobWcc547qivEJsJzKNwGqqa5xRpEUZPj5GuT7KgXrDJX0iNlLSnDaa5evQULNFcFmZOY2Wlj9ra03srI8/tEgjjhoM8GumoADHBDWlt/n+ZOXa9+fPSyx6uwVeemnNbdrlR5t2xchotvBdv/Q4xUU1ygMlWFh5tAoHAt2VgMtHqBrItqZ/eX2VrXndamSqM8Kw9YVn9HP+F0VNoXk62C/SPGWoMXSnT20bkcHHv9VmsZiyq7MxUm81UwcieBajIL9A/pzs9ixb1dbXNyhjHL1A6tPyFhjNHT9ushng6+zsIi2YEhJMVuYq4IQnONi07tvQ0LpgZeebRJCNrntFt57OumztOjHWnGfrntZHwlp6/mQB1bjyp70GSXX1XvSm7pxhfusNHAh0ZwJdJqgMlZ98+UtQv6bKYsqjVrcSU9HWxroq9XvgE2L+0tQC/SJsT2Nq8Y58VuYeUtnC+49T/g559A8CnThlyuvD7LwM3vLtPdZt1K+xammt03jCdXW1SRSiomwb2AwZYl4fPnIkR3Xp6NFc5R8+PFn59Z6wMNP6rDb1q4/T/Bu2m0Vw7NCOC5R2rm6R2MLClsKd7d5Ybn7Q1M4f7uw6UT4IdBWBLhVU7rS1qLqjmHI7+cQezYX2GaZ55SefvBQk3sTibMcHQWiuz/QrxXSj7dtlfeCDloc/a0vN7eZ9t53lKjLNh8gnTL64RTX8xhrN2TI80uLc/fP4cdNIk/eh8jYZa8cHO2iOT1nSnLZFhq/nzp2oBavPc84Zrw6a0K/DqgQnPMtWmQVq2tiOTWv3TWgg7VzdrQ4cCmHdFnuuK6oM2tK5PcmRBgQ8moCBTeBTUlLUD0+1utpposqjUjm9VFDgdgZI2ltomE1vIW7agRC8x3LYNf+UBxg4m1ttaZ46co9fnzbqttdVvVyX0V8cJnD+n+Qez9bqrso7oqL6nXubPLpQeyGAinCCJ2fTcnnsIhcVP/58ih4xQ5UaN3YO8X5SdnxoQ/6O71Scp3mef/5T1eSHH76CtBEpn7r0zDM3iKUK0yiTD23gwx00d+hQNh07ZjJGio0Nl/tVtT2zo0en0h/+cKGWlP71r2XKb+3Zts+XistMD1bzpttei7XOo10/fGOx5iV+jZqrnR1ng7i6SagPBJxKwMiCOmuW6cuOS961a5fYT7fBqZXYUxiLam6ueTRlTx5XpmmoLhPn8P4mj8jjE31G3fqa3B+piROf4WvrSMOTbSMf0sDHHvqKaWa2pNXq5ROVtDVJFqnWHB+UUHl8PwWJN+twGcOv/bdF0p8fO9viml8kPubOty3CtAveF3vaw99ol/Jkqc1PLpDXfOrS0VWvUL85t8qHi9QF96gDGXgaWHOHv3pRWftqYZ70yaPO3buP0LBhfcX+TCO9+OLt4uGvUY0uuS+NjU309NMftOgWhz3//K3SsGnKlOHiSMOnZFr9EYh8MhNvoWnLsWHPbYvKpHHSFXMr6K0V5lFra/l4i8z08aZtObwndE+6eT9qa3mcFd7Y6CX4iK1yJ17j5qxyUQ4IuBsB23OI7tbKTmqP/pg/ewwtDnz8N6rWGQpJMRVrlNkbl1HBrjWmVurWLLVmq3psxGlp5KeNeN5Ws+1fV5jOBz4Rz/VqYspbSnI2r7Aoxvpiz1t/liNduZ/TRh369K1NK+vTaH69UHIYv42GD5nghwt2HK+l4S0xe968hwp2rpZx+v+axcyEdFbHLqo0Wpu1TxXhHE9jo2k7D5dmz+8Bn7e7fPlGlVYviIWFZXTllU/ZFMU9e47SNdc8Q5olMBu3aXm53g8++IHuvfeVdjv1/LthpL255dZFpe2m5wR/uKJUHjfI/n++5drRaaXYPsMuVbw6jo89hAOB7krAKykpyfxt0l176eR+8ZtnQvoMEW97OS7fEqME08n12CrOPyJeTNsOlu9xrRLn2lblpMtzfW2l7cowfn9qiFhrZjblGbs7zbK3K/vIxwkOHZosTkRKEYc8FNOWLfuVWLbXLn7TDR+IHx0dKk5NShfnAWdYnLrUXn4WSO0VbPyy8PYOyt/zWabcapOVZ6RJVyS0V7xT41/+v3yaPck0OuZnIp6y5rXV03/n2nY4tVMoDARsEICg2oCCIBDwBAI7lmXKER8fprDoXvMhEtZtP2NcDS39q2n99sK74mjLbrOlsHXazrgODmyiZc/m0uB+5j2wXE/ybLNFdGfUizJBwNUEIKiuJo76QKCHEogMayJ+W05SfL1c/12q26PaQ5Gg292MAAS1m91QdAcEQAAEQKBrCPRoo6SuQY5aQQAEQAAEuiMBCGp3vKvoEwiAAAiAgMsJQFBdjhwVggAIgAAIdEcCENTueFfRJxAAARAAAZcTgKC6HDkqBAEQAAEQ6I4EIKjd8a6iTyAAAiAAAi4n0GMEVXsBgMsJo0IQAAEQAIEeQaDHCGqPuJvoJAiAAAiAQJcRgKB2GXpUDAIgAAIg0J0IQFC7091EX0AABEAABLqMAAS1y9CjYhAAARAAge5EAILane4m+gICIAACINBlBIxdVjMqBgEQ8CgCBi8D3XfqvRTsE0Rv73uPdhfubrX9fUJ6082n3Ej1TQ30t81PUk1DTatpOytiTOxoumjABZQYlEjhfmHiBesGOm/5gs6qDuWCAEFQu+iXwCc4kqKGTaXAmCQy+AbIVpSm/0r5v63qoha5V7UJky4m39Bo8XLyPVS4+0f3apyDrbn//ssoIiKYNm7cQ598st7BUrou27yU82h672myAX/b/FSbDcmuzKGR0aeQr7cvXTF4Mb2y639tpnd25IRep9JfJ/3F2cWiPBBok4Bx4cKFtGHDBsrIyGgzISKdRyD6lJmUOv9uIi8vi0J9AsO7haB6iwcE3zDxwuvmZqouOGbRR3svEk9fSN5+QRQYl9JtBPWMM0aS0ehN/v6+HieogcYAun74tfL2rTr2PZXXlbd5KxvEyHTZwU9p0aBL6dKBF9On6Z9RQXVhm3mcGbl48GWquMc3PUE7C3ZReX3bbVYZ4AEBBwkYwsLCaM6cOTR9+nQHi0C2jhAw+PhR//P+oMS0riyfivf/In+K9m3oSFFumzZ2zDk08qaXaOTNL5NvSJTbthMNs5/AhWLqlEeb7N5L+8CujJ8c/Eylu2LI5crvCk9CULysZlPuZvoh80cqrCmkusY6V1SNOnowATXlO3DgQMrMzKQDBw70YByd3/XghIHk5W3CnrX+fcpY/UbnV+qBNeRt+5b8xCi39PB2D2x992qyF3nRgv7zZaf2FO2lY+X2zToU1xbTuqz1dHriFDo7+Sz6z29LqLax1iVwQnxDZD25VXkuqQ+VgAATMKxdu1aRGDlypPLD0zkEAqL7qIKL9nreOppqfCd7jq58mfZ/9DjlblnRyTWh+PYIjO81jkJ9Q2Wyd4QxUkfcO2mm9N5e3jSzj+tnwXjqGQ4EXEXAuHfvXpoyZQoZDAbi6V845xPoNX4++QSa2Ib2Mz+0xI6aTQ2DJqkKy7P2UcmBTeo6PHUcBcUPoPqKIuIRm7WLGnYG+UfGU01hJhXuWaeieVo5cfKl8rpg1xpqrK2i6BHTKTx1PHn7B1Hl8f2U+ePbVFfe9pqWl8FIMaPOouDEQRTUK4X4uqYoS9ZlbSjUWh8Tpyykhmrz2lVzUyNlrn1HtVXzGANCRF2ztUv1WZWbTqWHtqlrWx4vgzfFjp1DoX2Gk390b2qsqaAKwTJ/x2qqzj9qKwtp7S3P3EtlR3ZQ1PBpFDHwNAqI6k1VeYcpZ/NyKj/WuhWrzUI7ENi7dwxdfPFUGjUqVSw1N9Pu3Ufoww9/pKNHc22WEhjoT3PnTqAJE4ZQVFQoBQb6UV5eiZhRyqKVK7fQ3r2tjxrDwoLo2mvPkeV+9tkGOnIkV/zND6fZs8dR//4JVFZWJewodtFbb31HTU1NLeqfkjBFhW3J3ar89ngOlqTLqVaeLuaR6ldHvrEnG9KAgEcSUFO+3Hr+w+4s5yUMcHx9fam29uSmfPz9/WUZndlWZzNImnkNschZu7hTz7MIYuHQCypbuob2HUmNddU2BTXpzGvktGi1laD6BEVQ4lSTUQbXy/UYjKb1L64wqFd/ihk5i3a+ehtV5R62aIN2EdJnKA1a+AgZA0wjEy08MK4fRQ6ZQkkzrqZtz/9OCyZ7+8gZbAlqgLB2Tp51nSpP85Qd3dmmoPqF96JhV/+jxVotc0uYdAkdXfUKZf/8iVac+tTaWyamlJNn3yCFVIvktkQNm0aHVvyb8n79Wgt22mdkZCi99trd0kBJKzQpKZbOPvtUeuSRN2ndup1asPxMTo6j11//k0UYX0RHh9HQock0f/4kIcY/0JIltkfzXPbcuafJ/NnZhfS3v11LsbHhqjz2p6YmUExMOD3zzIcqXPOMFdtP2JXVlVFjc6MWbPfn8cps6huaLK1+7c50Egl5NMw/cCDgagJGHpXy6JRdQUFBp9UfGRkpBbWkpISqq6sdqicoKEiOoquqqojL8RSXt/1b8YUfLZsbGNtXjCoTpJ8FlMVSc6XpWzSv0z7jJ14oy6oQI7GakhwKSxkjR8u8jtvvnFto9xvC2tjKseAOu/pZFVpbnEPlmXuIR5dB8akUGNuPjIGmNSotkb19bG5lCq6urNBCOMP6jVKGW1odLT7FQ9qI618go3+wjKotzaNyIcA+wREU1k+IgIhPPut6YsMv/QheX04o1yOc7GPWXrGNqa+wLO4nw/rOvpHyxcxAc3PLUZtM4OB/8fGRMmdxcTnt25dBPFrt0ydGNNdLCOqVdNFFjxHHac7Hx/zcW1BQSllZBZSfXyoFdeRIMXMg8l1yyRlUV9cohLrtB4CFC2dQSEiAfHguLq6g8vIqOeINDg4gb28vrUr16eftR7GBwmJbuKyK4yq8Ix5ec2VB5VFqr6BelCO21HSmGxE9XBVfUus53xOq0fB4LAGj3ro3LS2t0zpSXl4u/nCjKDw8XNbRUVHVxJSnpCorK53STh7tcrnsGhobqLSk1O5yIyIi1IMI962urnULwiNf/0eVG3/aBfJLngPSP3+m3WlXlfEkPPs/+gsV7TVZEPO07Zg735KiE5IkvnjEl7H4drUofcBF96vro6tepeyNH6tr9vDoNXHKIouwk+1jrRD7vW/fp8o89d5lctuMCrDhiRPWxJqYlh76lfa+84DqS2jyCBp65dMmURXC2JqgcrG89zf983+oGgZe/KAchfPoPqz/WCo5uFnFWXs68nugz7tv3zG6+ebnVNDtty+g88+fLMXxjjsWyJGqFsniun79LnrppRVSTLVw/oyICBGj04eEGBroggsmtyuoLKZc3u23v2hR1syZo61/DWQ1EX6mv1e+OFpme/pcJmzjv2Pl5i15Uf5Rdgmqt7e3+q7goouKiuRDQBvVqKiZfWYo/+HSI8oPDwh0NgFjXFycrCM/P586U1BZcAoLCx0S1cDAQDkybWxslH9Y9fX1TuESFBxEwcGm0Q1PIXdEUEPDzFOhLMZtCapTGutgIbyGqIkpF8EjxNytX1LvaaZtDH6hMcQjO82xEPlHJspLPlTBWkw5gsP3vfeQlqXLPntNWKDqPvjp35WYcqCcKhbTuWEpo+V0MI+6K3PSVXrNw6Puw1++oF3Kz6x170lB5Qv/KMGiDUF19Pfgscfetqjzuec+ldOyvE914sShFnGFhWX08MNvWIRpFyyOO3cekmuxvM7anuPf85tuElPZYv1V777/3vY6dbhOUPXCqM/bnl9vFawX6Lby+fj4UHCI6W+T05WWllJDg20Do97BiTRDGDwFiROchkcNo0ERA2XROwp20sbsn9uqBnEg4FQCci6JR31ff932VJEzatVElad/7R2p6sWUBbm1PypntK87lmFr20lNkXnqjk8j0gtqUMIghSFzreWXvopwEw+3nR1P19ZXFrdoVf72lVJQOSIgJtmmoNYUZ1NTg+W6fnVBpipLm6pXAU7wsBFQTk5Ri5LYwGjIkCTiKV6DwUsYCFnOHAQF+dO8eZOI10Tj4sLFEoqPLIOnizXn5+cjbAxaf+BMS8toIaZaXlufPt6mOjjO0S0vNTq+PgZzebbqcyRsQPgAulK3z7W6oZr+t/t1+ix9uSPFIQ8IOEzAyE+sX375pcPrmh2tmUWVp2/sEVVNTFnwIaYdJW1KX1vS0mq0sa5KFaY3VuLAoBPrh+yvyjnEH27rvH1MI7K68gKbbawpyVbhcqSprsye+rKWefUCazA6XwDKymwvWeTnl0hB5dbxuuqxY+aZg3vvXUhnnTVWTgmbW9/S5+trbFNQW7MiblmSKaS01rwMwufzOuL0+TpjTTO9NJ3eTXufwsR5vafGjpVrvreOvFkaQT36y+OONBl5QMAhAsbvv/+ejh83j1gcKqWDmewRVVeIaVVllfqC4unkjriK8gqxjcRkxFFT7fqDv+1ta1Nj66MVW2UYT2zv4biGqjJbSdwijNeC5fqvaE1jrdmwS9+4xhqzcPlYWStr6ZrEdP3JOEd+D2pqbN+T+nrz7yBvddHcHXdcILe48DU/AB8+nCMOYcmX2104bOzYARQfH8Veta4vL2z8xwZNHXHFOqOepJCkjmRVaZNC+ii/vjwVaMPDyzp6W4m2/j55Kvq13W/IUti699mpT9MwMfXL23TGxY2hLbm/2qgBQSDgfALG9PSW60rOr6Zlidr0ry1DpYCAALlm2tkjUzaM6qhxlNYTHjF3tmu2sSdQX6etrTj6eEf8vKeVxP5Xdn5yj2uWI8V0eh5eC+b1T96D6hNsNpzRV6xNCXMYT+12hnPk94ANg2w5ffiRI2ZL2DlzxsvkDQ2NdNVVT1F2tuV08d//foMSVFvl6sP0oq0Pb83PZ/byFGqAOMuX1yodcXohzqwwT6e3VRYLaEF+x8Sfy+NtPcvEkYcsqOxSxXQwBFWiwH8uIGDaL+OCimxVwU+h/IXET928pspCyj/s72wxtdUedwtrqjeNfK2nZbV2ahau2rUzPitzzdO84f1NwtrhcsX91JyXbg1OC3PWp3ZghF9EvM0ig3qlqnDeq+suji1zbbmEBNOaMP89lJebRt08UtW2zfzyy74WYsrl6NdQbZV7smG/FeyQRWjbZzpaXmKwaZsYH/LgipOLfs75RTUxyj9S+eEBgc4m0KWCyp2zFlWIqfmWa8ZCPArjAwz0Lmro6XJ0pg9zhp8POtBcn+lXillV278i1gc+aHn4s7bUvG7L+247y1XnHZFF84MFWydbO/3BGZXZB62ju+ya1zn5pCK9Cw8PFuumJkHl/aGa048ok5NjtWD1ydO9+kMaVIQTPT9nmwWK95N2xEX4RahjC3/J2dSRrA6n5UPwHTmAwuEKkREEThAwpKamilNSTD/9+/fvEjCaqPKoVE71iAMmYM1LVJG5T92PgZc8pE5b4n2g/fn1b53gWMS1Yw759WmjbntdHUTB1bF4pZ7/Jxp166ut1l51Qug4Qb9zb5NHF2ovBGg1kwMRfAqS5gYtekxa8vI1P4AMuOA+eYoUX5cc3CKPb2S/u7gHH7xcnk7E7QkNDaRXXrlLNe3tt79T/qqqGvHQaVrnZUMltvLlrTXsWJSfeOI6lbazPN9niOMrT5yQdMmAizpUzQWp56v0Xx7p/J0EqrITnpZHVVinwDUIOI+AcebMmRal8XtReX3T1Y5FNTfXPLJxdf3uWF/B7h+o39zbid8vyvsox9/3uVo35F342hqis9vOhzTwOcL86jW/8Dghnq9RszDe4RODtOnnxlqzwY91/bwth88LDhJv1uEyhl/7b4skPz92tsU1r3WOufNtizDtgkeepz38jXYpT5ba/KRp/ynvKy1O+5kiBp0mGfEr45oa6lQbORO3+8jXL6r87uLhUerLL98lHhwblUBy23jPKZ+3q3effrpBnIQ0TQbdeecFxAc/8JYaPsyBXW1tHfn5+Up/Z/zHa6j8CjQ+MGFm0gz6z46XqKLePIpurU6jMBy7MNV0r3hPaJ4L3/xS01Aj96WG6fbRttZOhIOAswjYns9zVukopwUB/TF2vFbWphPxe9/6MzXVm/dJ8uiLRSPtw0fFkXonjDasy9EflWcdJyrUGzvp26O1hbeNbPvXFaYzcE/k5xGmJqZcf87mFVpym597RLt5pNsgDqpn8W/LtTatbCsP91/v0j54RB70r9WhtZHT8EH+2567yqZBkup3O23TytXXebL+XbuOiCMHj8litNEmXxw8eJwWL/5bi+KXLPmCVq3aKppi4shHDbKY8vU332wWP1tUHi2NChCexkbz0Ym24vVpW/O/s+99GcVWtPNS5raWzCKcD1vQ3qH65l7bD0wWGZx4kV9t+tvgc4j9jabtVU4sHkWBgE0CXklJSW1/29nM5nmBKSkpstGHDpmNbjylF7xFJCjBdIYuvwGlusD0Zeyq9vsLo5/gxMHyPa5V4uSlKjEy5NGxWzkhMrxey++brSsvkqc5tTWKdoe281TvGWeMklO669fvVIZIrbWNDZTGjBlAiYlRtH17OrEwu9LdM/aPdFbyLKqsr6TzV1ykBL61Niw96zVig6Tt+b/R3evubS1Zp4T/buiVdPngy2TZPF3NRxDy+1nv2/Bgp9SHQkGACUBQ8XsAAiBgFwE+OOHDOe/KN7k88NND9EtO62cc9w9LoZdm/keW+7uV11JmhWu3X/HI+N6xd9O03lMt+nbmJ5bLDRaRuACBkyQAQT1JgMgOAiDgvgR4/2xMQAxF+keQr8GXNuW2/hDgvr1AyzyFgNFTGop2ggAIgEBHCbBBFR/Orz+gv6NlID0I2EsARkn2kkI6EAABEAABEGiDAAS1DTiIAgEQAAEQAAF7CUBQ7SWFdCAAAiAAAiDQBgEIahtwEAUCIAACIAAC9hKAoNpLCulAAARAAARAoA0CENQ24CAKBEAABEAABOwlAEG1l5QD6fh0Ju2EJgeyIwsIgAAIgIAHEYCgetDNQlNBAARAAATclwAE1X3vDVoGAiAAAiDgQQQgqB50s9BUEAABEAAB9yUAQXXfe4OWgQAIgAAIeBABCKoH3Sw0FQRAAARAwH0JQFDd996gZSDQbQg0DTqT6q9YSg1z/9pt+tRVHWkaNsfEcjbe7dpV96C1evG2mdbIILxbExgwYTqdcfVdLfq4b/1KWvf28y3Cuzrgscd+R7Gx4RbNaG5uprvuWkLV1bUW4W53YfSl+gv+ReQfQt4b/9dq804fnExJ0aY+frVtPxVXVsu0A+Oj6NT+vaV/66Es2ne8wKKMYH9fun7GOBn26Za9dDiv2CLe3S4unDCM/H2MVN/QSB/+vEs1r7X+qwQnPF6Fh6kp9Qwi8WPYv5oMh3+yToLrLiJgXLx4MW3cuJEOHTrURU1AtSDgegIJg0dS/MARLSpubGhwS0E99dSB5Ofn26K9QUH+bi+ojVNukmLKjff+6ZUWfdACLj5tOCVFhcnL3Zl5SlCnDEqmeWMHy/AgP58Wghoe6E9Th/SV8Tsyct1eUC+ffAp5eXnJ9uoF9RLR/z42+i8T6v7zytlLXtm7qTl+GDXMf5p8/306kXi4gut6Asbg4GCaNWsWHT16lL755puubxFaAAIuIJC2YSUFhJpHfOPPv4rEt5wLanasijff/I6io0Nl5lGjUqlfv16OFeTqXEY/aph2h6yVR1NeZdmubkG3rM+49jmqv/Qlao7oQ01DzyHD7q+6ZT89rVNGnjbip6Xk5GQaOnQo7dmzx9P6gPaCQIcJ5BzcQ988/4jKN+68y8lgdN8VkPfeW63aevPN8zxGUBtHLiAyeMu2e691v6l0BdXDPIa9K8mrqpiaAyOocdL1EFQ3uX+GL774QjVl8GDTtIoKgAcEQAAEToIAf9mz43U/Q8avJ1ESsloQaG4i7w0vyaCm3qPlSNUiHhddQsCYnZ1N9fX15OPjQ+Hh5imwLmkNKu0UAkkjxtMps86nuP5DKTSmF1WVlVDeoX30w+vPUnH2MZt1hsUm0KSFN1DCoJEUHBlDZQU5dHzfDlr/7otUWWxpFMIF+AWKpYMb75dlbV3xHtWUl9K4+ZdTyrip5BsQKOpLo5X/+Uur9XHGwPBImnXD/RSbMpiCI6KpvraGqkqL6PCvG2jTp0tt1sv5eGR5+uJbKWnEqRQRn0S1VRWUfWAXbf3iHcrau52TdIobOu1cGjzlLOo1YBgZffwo70ga7V37Nf327bJOqe9kCj3nnPE0ceJQ6ts3ThZz6FA2rV27k1av3tZmsZxnzpwJlJqaQEVF5bR16356553v6bzzJlJUVCjt3XtMlLPDZhk8emqO7i/jDPtW2kzTGYFsxHTG0H40rHcsFZZX0U6xrvqlMHKqE0ZAtlzfmHCaNqQfJQuDqOjQQKqtb5DrsGz89MMeYQDUxvpkSmwEnTagj1zC/PDnnWT09qYJqb1pyqAkig8PodzSCloh6t5+xPlT3Ya074hm/Vl2qWnwWW0afNnqN8KcT8DI073e4peAXYMwyIDrPgS8fXzp4kf+QwMnnmnRqZDoXhQnRGvEmefTin/cR79++Z5F/IhZC2j+Pc+ImTrT7wVHhsUlUp9hY6VIfvzozZS2YZVFntCYeBoz9zIZZvTzp+HT51lMobLQDThtBi39w6WUsWuLRV6+4Lxz/yC2VFitY0Ym9qXeQ8fQ+AuupqfmDm+RLyZ5AP3uuY8oIMTyYTCu/xAaNfsi2vD+Evr+lada5DuZAN+AILrimXcoccgoi2LC4/tI1mPPW0xv3rWIGuq63vo2IMCP/vnPm2jgQJOVrNbg3r1jaOrUU4Qwnkb33POKeKhu+bd/663n0wUXTNGyUFxcBA0ZkkQzZ44W67lh4iHcSAcPHm9dUPtNVHm98g8qf2d6Jgpxu/WsCaoKFskx/RLovDGD6U/vfEuFFVUqjj33nz+Vxp+wINZHDOgVRWedkkoLJ42g+95b1SKflna8EE82JmL3497D9O8r55CP0fx3w0ZG41ISZd0Hcgq1bE759Co6ospp6j8VgqpodJ3HcPbZZ5PBYNqOmpGR0XUtQc1OJ/D7/y5XYtospoh43XDPj19S9v6d1FhfJ+sLjoq1qJcFasF9/1RiWph5mA5u+kGNLL2NPnTpYy+LkW68RT79xSmzLpBiWnAsnQ5tXUd1VZUymgX6XBZNK+fjFyDCH1diWpZ3nNJ++o72rf+WCo6JL2Je5xf/rJ2X+L297r+fKzHl0Wz65rVydCqHDEKcJy+6iVjgnOluWfq9EtP6mipK37KWDvy8WvWTHwAue/INZ1bpcFnPPHODElMWze3b0+m339LFw7NptDZyZH/661+vaVH+3LmnKTFlO4u0tAzatGkf1dTUUbwYAbKYtueaks3C5lWQ3l5ycctsW6rqQ1tJosoeK8ST3d6sfPpuZzrll5l+9yKDA+jJRbNUOs0TfMJyukawYcvib3cclD8ZhaUySWxoEL1w9bk2fvu0Esyff7lkphRT3g5ztKCEWEC5XHYGqwdFcy6zz7Kf+itzGgtfYz2JqSAZ1NRnrEUULrqGgDEpKUnWXFFRQRs2bOiaVnRRrf7+/hQUFCRrb2hsoNIS0x+RPc2JiIhQDyLl5eVUV2cSqPbyOlonzyLop+SLiopa/QLiNgybPldOnbK/uryEXr1xnhJFDjP6+tGFD71A5WIqV+/m3fN3dbnu7RdozWvPqOs5dz5O4+ZdLoVv3j1P09t/ukLFWXv0I18eKf9x2RbyDw6l2H6DiIWwualJZRk5+0IxMDU91B3c9CO9++erVBx7gsT079AzzrUI44spl91CPv6BMpyneF+9aZ4qd9DkWVL4ecQ787p75PRviwIcCDjtomuJR/js+AHlf7ecrx5OeOr51qVriEeqfUdNpD7Dx9kcjTtQrUNZkpPj5IiSM1dV1dIVVzxJxcWmL2De07p06T1yK87YsQMoJiaM8vPNv//XXHO2rJNF7oEHXqOff94rr0NCAsSU7/0ULASqPdccYppe5nRehe1vy+MRpPHEw311nRCLE+7Ntdvog592yqtaO2bRXvp+M329/YBMz49hTyw6iwYnRFOMEMdRfeMtpl83Hsikb4SIrtt7hKwl7JozxsjtOgG+PnJbzo8iTVsuKjiQNh7IoH98uYEaGk2/31w/b/kpEFPPmlv0/EdSYK2nku9++xub/dfy2fpkrs2JI9W2JFtpEOY6AvJbLC8vjz744AO7RcF1zevcmoKCgyg4JFj+hIWZ9r/ZW2NoWKjKGxDY/peLVq6jdfIat9ZW/tSm6bVyrT95LVJz7z9wnYWYcjhPR37w0O9p21cfaMnkZ6LYn8mOR5V6MeWwr/71oJrG7DtqEgfZdKVihKmfRubR8O7VX6i0kQnJys8eFkzNHU/7TfOqT16z3SzWUK3duHnmkeeHD12vxJTT8ZQ0Cx47/5Awub4qL07yv6lX3iFLaGyop9dvu1CJKQc2iS/7b154VNUw4cKrlb8rPFdeaR6RvfnmSiWm3Ja8vBL66KN1slm87LN4sXlZIDU1UTy8Bcs4ntLVxJQDysur5RqqjGzvv+AYU4qmRmmR2l5yXuOsEkLKP3pxa2xqVuHsb8uVi0MuNDHldJz6uW82qiwLxg1RfvZ88es+WmtDTDnu3Q3mteGhYj22PVdUUU1PLV+nxJTTc/2fb91nMWXMo1buozZ61cptrf9avK1PQ77pwUHG+ZkGB7bSIcw1BOS8TWxsLC1cuJCWLVsmNolXu6Zm1NKpBIKEIRG7isI8u0dJPLLS1jAPCUMgWy5j91bqN3qSnBJmQyQ2ALJ2WXtaWnMWZJin/CISkoinkjWXtXeb5qXJC2+UIrX1i3elQZKKsOEJCI2QoSy4LOLWbvu3H9PZwmCIHR/icGznZuskHb72DwqReXhEzdO6XgYeg2hO7yfq1d9Utxbr6s+EhChV5ccfm8RTBQjP+++vocsvnymDkpJOiJ+4GjxY/B6ccKtWbdW86vPTT9fTDTfMVdeteZq9fUxRDTWtJXF6+GZxkpK1Oy5G5VW19RQoDoXodeJBwToNGzIN7xMnDYn4oAjrGVo+UKI999Ev5lOP2kvrtPg688i32dtPTE2bpridVj4K6hAB44EDB2jAgAFy6pPXUz/99NMOFYDE7keAp3N5rZOdLaFprcXxqWYBKMmxvZ7O65uaY6vhYzs3aZfqszi7Zd6ayjIVr03TagE8zcvlhgrLYp4enn7N3fKH1yczdv8qDKf+TCU5mVpy9WkUadlVlhSqML2nUCfi0Un99VEO+Xl9Wfum5fXg5JHmNUJbBQaEhdsKdlkYW+Gy4/XSJt0Uu9aAqqoauWzAI9ToE0f+cZz+0IjMzHwtufqsq2tQ+VSgDY9XZaFppOkbJNYY/ERDOt9IK6/UtqCUVtdIQQ0TYql3vSNDhWHSNEqIMD0o6eP0fu8TU9H6MGv/odxi66BOv9asqLkir+qSTq8PFbRNwLh69WqxfhIj1+d4pBoYGCjWW8xPPW1n9+zYqsoq8f1oGlU0NjZ2qDMV5RVqdFIj/ljtdY7WyVubKivNXxZttVdvaFRTYRay9tqon3ptLV9NhWkNjssKibY9DeaIdeu/LztdiOgfidco+YGAHQtvytgpdPs762jXmhX0yeO3yXD+j4VXE7f6GtuzKlWl5i84bTSrCnDAExprNsTitWc2gGrL6UfhbaXrrDjtqMK2flcaxVqfUVilBgSYHk64LWwZrLnqavtsA7T0+k+vigJ12RyVQl65e9V1Z3l4KtWW09Y0fcSDkOb8hGHVk2J9lc8CZldSWSO32LAhU8OJBxDNgtdy7kErwfIzu8T8t2EZ03lXzdEppsL5YUUYHsJ1LQE55Xvs2DFl8BIdHU183RMcT287OsVdWGh7VNQeN0fr5C/FgnzzF1Rb9ZTwCJHNIcXDQkh0XFtJLeLyj5rXY8JaseLViyjvLXWWaxbrbKtffVr+JAw6hUafcykNm3GeNGTifgwX/t+++Uha1HKdvC7Llss89ao/QlDfHt6qo7ni40c1r8Ofx9N2qrxFWUdp+d/vUdcd8ei3qnE+Hj3aGkF2pExbacuEMLARka8wqmnNsZiyKykxT91nZOSp5DxtzFbB1k57ELUO1197ZTOvS2QQf/G7QlCjWjGWYsMidhW15geEaUP6KjFdLtY5X/vBcqnCV7DRBFVmbuc/TYTbSea8aPF30Rxqeshz1bYk5zW+e5YkjZJ8fc1Pp0Y3Pn6te96CzulVnZguZcf7ONmq1h6nGfFw2hhhjWvLRfcxT50WZLRvuWmrjPbCjqftoC//9QA9Pe8UsXVmpUo+SByioHd11aY+hlht/dHS6PeJ5h8xPyxo8frPJiHo7ELbeACpLiumphMzGXK9WV9AB/zPPvssLV++XP18/PHHHcgtrLZ1b5cZNKh3q3nz801TgCx+vXpFtkjHhzVoLlc3XXnokNnye8wYMc1t5fgsYXucIX29SqafmlSBneDhfafWjkeXvC7KrlgYDmluSKJ53fiNH83r+Fo870V1Z6eJKbfRkL7WnZvaY9pmYOvR/v3NX5I5OeY/ph5DoRt2NDfdNL3G06fTrrrTZg952pQtYDVXW1murFYTh4wk3h+qd4FhkXLbC4exFTCPKjvbHfj5e1WFnzhQQe+Kj5tmUnhqmLfJWDvejqM5W2u9Whx/8tYidry/tq0HEG2kyydJ8XR0a05OSbcSaT26s75uJZsKTk/PVn4+nKE1x6cYae7aa8/RvOrzmmvMYTt2mI3Etm8/SDwVzG7q1BFihCsnsnT5zlb+tjxyq4y2TzJpbFtJnRY3IqkX8chS7/gkI6O36aEyLds8y6Nt0eG0SeKgCmvH22bc2TXr9p4a9q9x56b2mLYZ2LqXRZUd76fsKeun3f0OL/vLbXJKlPs59Yrb6exb/0+dXMSCMXzGPLrn8+00fsHvLFBsXfGuvOapVD7AQFt75HXZm14To0Ux2mG38aNX5Kcz/pt14wP0x0+2yveT8ilEmuMR5gyxh1Rz+3XiymHfPP9/WhRd9PCL6rAF3g/KJxnxAwA73opjy6hJZRaeTGH8JJ3o3y1LV9OQ088mNmTiH68Th7tz/LK/3GpKJ/5f9MTrpn25KoSItx1d/ve36P5v9rUpuLosHfay4GmHIMyYMZruvvsS8XKLOEpKiqUInXHNG2+sVAc4zJgxii688HRV1+WXn0mnnWbaQlIrpkE//vhHFVcrLGLXrNkur/kAB953euqpgygxMZoeeuhyGj68r0rbnsd7yzsyCb+/U78vtb18jsZ7C6vrp8S6KK+PsuPXwd15zkTpZ2b6rTD7s83LNjfPmkB8iAM7Ft97551O/eNajuplAjf5r4FfiyccG38ZjrU0DnSTZvaoZhjZCIkdr+F8+eWXParz3bmzZfnirNY3n1OjUz66j3/YYEgz+rHV/1VL/iaO7LuYfAODpNXtnz7bRrznUrMa5jw89bn2redsZXcozMc/gILCo6Tws/hzfXwykv7tL7z9Z7cwTNI73gbD23j4SEQeEV774mdyL6g+H0/RLn/aLMr6/Hr/imfvp0GTZsk6eZr84keXqGjer6sdtcjT4luWvy2FlJnwYRdz7vgLNYg1XWl1fOKBQ2XuBE9ZWRWtXLmVZs8eJ/YjG8RZu+PlD1fF+0sXLnxc1sonI/G5u1dddZZ4DhIPCrfMJ35TDTv9qPjVV78Wf/9izV3n/v3vT2jcuIFyPypbCz/11O9VLFsNc736MlSklcf7lzeoccqNMrRx0u/J+K2pbVbJnHrZT5yv+8Htl8gzeTVh5Qq+/u0AlQrLZs19u+MAXTZ5BPH6Km+befn38+XeUH75Nzs+XEJbe9XyuMtnc9wQ+T5Ubo98aXt7R0i5S8O7eTvkPEhmZia99957VFpqPimlm/e7R3Tvx6X/ojfuuNhiP6deTEtzsyh90w8WLNjY59mLx8tRnRahF1OeOn324gkWhyhwOjYQ0pw2etKu+bP5xBSi9FtNFbMwalOuHM/1KVEUXxRHtm+k/147m6NaOD5cYetyMQo68YWi8omULMIvXjmd8g63bzzFDwkvXjVDHHWYLkVZX5G2bqqF8QEX7913tXkPrhAryfWEmPIDAXPKO7Jfy2Lxac3H+toicSsXTz31vvibXS1PQGoliQxeunQlPfHEu2qkyiKoCSFvf3n44TfE/vN1LYqoFBavl176uDRI0s755XayYP/pTy+rKWE+irAtx+8/NaStkkkax1/JR3S1ldyhOP2JQ7wWqp3XqxfT9zfupJe/32JRPh+kcN/7q9TxhBypiSkf0nD70q/UIQ2WjxvmYizuXWuJzMmd5ms4/WZTWeJvyXvL204rFwWdHAGvlJSU5p5wKL7opyR16FDnGNLYug1dUaetdnAYH8LQd/REsQY6mEpyMylDiFh706C8htpvzGTxlprB8vzfI9t/VicltVbPyYTz9HLSiHHCkKqfPDiC34iTKd4Ww2LXnuNpbD5Dl984w3tvD21ZZ/Eg0V5+R+O5zX1HnUYxfQdSqeDKa9d64y5Hy+2MfDwlzKNOHo1u3pxGWVkFdlfDU8ml4s0pnNcgplW/++7vMu8332ymp5/+oM1ymsMTqe4PP8k0xi/uFwJgmgZuM9NJRkaFBNJoccxgtjjUgd8a03hiG0xrxfLUcIqY4uVR6c5jufIko9bSdnU4v8Wn7l7TlLxx1ZPkvf6/Xd0k1H+CgJc4y9eFz1Vdx70rxK0r6uw6wqi5pxC46KKpaur4+ec/FYfBbGi36w1nP0SNE68jPiTf9/kZ7aZHgtYJNE6+nhrOekCunfr+Y7zYQ2Y6gL/1HIhxFQEIaieShqB2IlwU3ekEli//izzHl9dhjx7NlfXxq9vuvXehPAyCjZnOPfdBaX/R6Y1BBSDgAQRMq+8e0FA0EQRAwLUE+I0yZ545Rv5oa4Xa+iu35MUXl0NMXXtLUJubEzBtznLzRqJ5IAACrifAo1LtvamaMRMLa2FhGd1++wu0YsXPrm8UagQBNyaAEaob3xw0DQS6ksDVV5sMj/j4wgTxPlG2/LV1WH5XthF1g4A7EYCgutPdQFtAwA0J8DtQ09Iy3LBlaBIIuBcBTPm61/1Aa0AABEAABDyUAATVQ28cmg0CIAACIOBeBCCo7nU/0BoQAAEQAAEPJYA11E68ca48lakTu4GiQQAEQAAE7CCAEaodkJAEBEAABEAABNojAEFtjxDiQQAEQAAEQMAOAhBUOyAhCQiAAAiAAAi0RwCC2h4hxIMACIAACICAHQQgqHZAQhIQAAEQAAEQaI8ArHzbI+SE+JtOuZ7O6zeXSuvKqLi2mNZmrqPlh76gqoZqJ5SOIkAABEAABNyBAATVBXchyBhEvt6+FBMQLX8Ghg+gcXFj6e5197qgdlQBAiAAAiDgCgJeDzzwgHzB+OHDh2n9+vWuqLNL6ujKd5N6e3lTgDGAegXF0d1j7qLU8P6SweXfXEU5Vab3THYJFFQKAiAAAiDgNAKGwMBA4p+IiAinFYqCLAk0NjdSRX0FHSxJp5d2vqIi44PjlR8eEAABEAABzyYAoyQX37+86jxVY7R/tPLDAwIgAAIg4NkEIKguvn/1TQ2qRn5pMxwIgAAIgED3IABB7R73Eb0AARAAARDoYgIQ1C68AYHGwC6sHVWDAAiAAAg4kwAE1Zk07SirTOxF1dz4XuM0Lz5BAARAAAQ8nECP3ofq7+9PQUFB8hY2NDZQaUmp3beTraINBtPzSHl5OdXV1dmVt6ahhqrFgQ68jWZs7Bj5yddwIAACIAACnk2gRwtqUHAQBQcHyzvY3NzcIUENDQtVd57F2F5B5Uz/3PYc3X/qvcT7U98/523acPwnEsgf1gAAL+NJREFUyqvOp2PlGbQ6Y40qFx4QAAEQAAHPIdCjBbWrbhOL5sGSg/SnsX+kIZGD6azkWbIp+0sOQFC76qagXhAAARA4SQIQ1JME6Ej2Cb3G02MT/0+OUPnQh43Zv1BWRRYdLT/mSHHIAwIgAAIg4AYElKCGh4fT6NGjqaGhgXbu3OkGTev8JlRVVpG2F7SxsbFDFVaUV5CXwbSPtKa6pkN5/zT2LimmnOn3390kpnohpB0CiMQgAAIg4IYElKDy8YPjx48nXkvsKYJaXV1N/OOIKywsdCSbPCQ/3C9c5t1btA9i6hBFZAIBEAAB9yOgBJWFtL6+Xo5Q3a+Z3adFmphyj37IXNt9OoaegAAIgEAPJ6AENTs7m7744osejsO13S+vL3dthagNBEAABECg0wiYNlJ2WvEo2JqAgXB+rzUTXIMACIBAdyAAQXXxXQz1C1M1VtRVKD88IAACIAACnk1ACSqvocJ1PoGpiVNUJbl4ubhiAQ8IgAAIeDoB40svveTpfXD79s/tN0ce3tArMI4i/SNle/lMX+w7dftbhwaCAAiAgN0ElFGS3TmQsMMEBkcMoqGRQ1S+nMocenrrP6hB925UFQkPCIAACICARxKAoLrgtn14YBmtzVpPJXWlVFhdSIU1ju1hdUFTUQUIgAAIgICDBCCoDoLrSDY+CQmnIXWEGNKCAAiAgOcRUEZJntd0tBgEQAAEQAAE3IcABNV97gVaAgIgAAIg4MEEIKgefPPQdBAAARAAAfchAEF1n3uBloAACIAACHgwAQiqB988NB0EQAAEQMB9CEBQ3edeoCUgAAIgAAIeTACC6sE3D00HARAAARBwHwIQVPe5F2gJCIAACICABxOAoHrwzUPTQQAEQAAE3IcABNV97gVaAgIgAAIg4MEEIKgefPPQdBAAARAAAfchAEF1n3uBloAACIAACHgwAQiqB988NB0EQAAEQMB9CEBQ3edeoCUgAAIgAAIeTMB4xRVXyObX1dXRBx984MFdQdNBAARAAARAoOsIGAMDA2XtAQEBXdcK1AwCIAACIAACHk7AmJaWJrvAI1Q4EAABEAABEAABxwgYf/jhB8dyIhcIgAAIgAAIgIAiAKMkhQIeEAABEAABEHCcAATVcXbICQIgAAIgAAKKgGHy5Mnk6+urAuABARAAARAAARDoOAHD8OHD6corr6SUlJSO50YOEAABEAABEAABSUBO+Xp7e9OZZ55JISEhwAICIAACIAACIOAAAUNubq7M5uXlJUXVgTKQBQRAAARAAAR6PAHDV199RU1NTRJEdHR0jwcCACAAAiAAAiDgCAEDH+hQUFAg8xoMBsKJSY5gRB4QAAEQAIGeTkCuoVZXVysOQUFByg8PCIAACIAACICAfQSkoIaHh6vURUVFyg8PCIAACIAACICAfQQMvXv3prCwMJm6pqZGrafalx2pQAAEQAAEQAAEmIBhzpw5isSvv/6q/PCAAAiAAAiAAAjYT8DA22XY8faZnTt32p8TKUEABEAABEAABBQBI2+Z+eWXX2jHjh0qEB4QAAEQAAEQAIGOEfBKSkpq7lgWz0ytHa146NAhz+wAWg0CIAACIODWBKSVr1u3EI0DARAAARAAAQ8gAEH1gJuEJoIACIAACLg/AQiq+98jtBAEQAAEQMADCEBQPeAmoYkgAAIgAALuTwCC6v73CC0EARAAARDwAAIQVA+4SWgiCIAACICA+xOAoLr/PUILQQAEQAAEPIAABNUDbhKaCAIgAAIg4P4EIKjuf4/QQhAAARAAAQ8gAEH1gJuEJoIACIAACLg/AQiq+98jtBAEQAAEQMADCEBQPeAmoYkgAAIgAALuTwCC6v73CC0EARAAARDwAAIQVA+4SWgiCIAACICA+xOAoLr/PUILQQAEQAAEPIAABNUDbhKaCAIgAAIg4P4EjN7e3tTY2Oj+LUULQcCJBO6//zKKiAimjRv30CefrHdiySgKBECgpxIwXnfdddTU1ER5eXm0evVqKi8v76ksumW//X38KTokipqbmymr+Hi37KMjnTrjjJFkNHqTv78vBNURgMgDAiDQgoCRQwwGA/Xq1Yuio6MhqC0QeXbAjCFn0BWTLpOduOWtO6iostizO4TWgwAIgICbEjCsWbOG9u7dSw0NDXIU46btRLNAAARAAARAwK0JGPfv30/8s27dOgiqW98qNA4EQAAEQMCdCcgpX24gr7HBdS6Bc0eeTYG+QZSWk0Y7MnZR78hEmjJgEo3scwrVN9bT/pwD9MnWz6mqrsqiIV7kRVMHTaHB8YOob3Qy1TXU0cG8dPoxbR0dK8ywSMsXs4fPotCAUBk+LHGoip8/+jyqqK1U101NjbRs62fqmj3clpSYvlRSVUpr9v1oEccXk1JPo7jQWMouzaGf0ze1iA/0DaRzR54jw9ftX095Zfk0JGEwTR4wkQbGpcpyNx3eQt/tXk1NzU0y3ejkUZQa21/EldCq3d8TX5/ab6xMn19eQJsObbHZlhaVOxjQu3cMXXzxVBo1KlX+HezefYQ+/PBHOno012aJgYH+NHfuBJowYQhFRYVSYKCfsEEooQMHsmjlyi1ixueYzXxa4O9/fy6FhATQtm0Hac2a7TRkSJIo7zRZf319A6WlZdB//rOcSkvN90rLi08QAAH3JeCVlJTUI5Q0JSVF3oVDhw512d146/rXyGgw0ubDWym/PJ/mnHJ2i7YcKThK9338kApn8XrgvD9TTEi0CtN73v/lI/p82xf6IHrjulfJz+hrEdbaxaIlV1pEPTjvPhqWMIRq6mvo6v9dbxHHF88vflYYOUXT8ZJs+uP797aIT45OoicvelyGv/zD/2Qf+cHB2n326xf0waaPZLC+zg0HNtLModOtk9PG9F/ouVUvtgh3NGDlyqekUVJ2dhHFxIRJv74sfsB85JE3xczNTn0wJSfH0euv/8kizPriww9/oCVLVlgHq+tVq54mb28D7dx5mHJzi+nMM8eoOM2TnV1Iixc/oV3iEwRAwAMIGOfPn0/Hjh0TT8vbPKC53aOJg3oNkCMw7k1xZQnlCXENEyPKXmFxZPAybw0O9AukZxY+KUWY0+aIUeHurL0U7B9MY/uOluELJ1xMhRWFtP7AT5xEuh/EyDIyKFL6+0T2luXyxc7M3VIoZYT4r7GpQfN2yufFp15IEUHhctSXW5ZHpdVlcnQbHhgm+unVok62SGYx5RE6tzXQN4BG9B4u003sP0GM3j+jzKKsFvlOJiA+3sSpuLic9u3LIB6t9ukTQ16ifY88ciVddNFjxHGa8/FRkzpUUFBKWVkFlJ9fKgz6wmjkyBSZ75JLzqC6ukZ67bWvtWw2P/v3j6cRI/rJuPLyaioqKhMj10CKjAyR5djMhEAQAAG3JWBk617+GTJkCH366adUXV3tto11dsP8/f0pKChIFtvQ2EClJaV2VxERESGtozkDbzWqq6uzOy9Px/IU75NfPkN7ju9V+XqF9aJT+pgEhAOvn3atEtP3fvmQlm8zj3q4jOfEaJFHotdO/Z2cfm04IZBvrH9LlcmjYM3Kd8mal11q5ctimieE9NHP/ybqLVJtGpV0ihBZdWnhySnNpXs/ekBOa3MET3XfNN00Uj57+Fn06trXLdLrLxy9J/v2HaObb35OFXX77Qvo/PMnS1G7444FcqSqRbK4rl+/i156aYUUUy2cPyMiQsRU8UNy9HnBBZPbFVSeOm5oaKTHHntLlqmVlZqaQJMnm38PtHB8ggAIuDcBQ01NjWxhSEgITZ/ecqrNvZt/cq0LCg6i4JBg+RMWFtahwkLDQlXegMCADuXlxP9Z/ZKFmHIYj0BX7vqOvWJ0FkgTUk6V/vS8QxZiyoFlYrT3/Z7VMp5HdkMSBkm/O/3H06YPf/oXCzHl9m0/toN+y9hhs6lL1ryixJQTrE1bT9qDQqyY/m7LOXpPHnvsbYtin3vuUyl0HDhxonkNmq8LC8vo4YffaCGmHMdiu3OnaUmBxdIe98ILn1uIKec5ePA4LV260p7sSAMCIOBGBIzvvPOOWKtZLDa4+4uprj7EwlJaav9IzY364jFN4SlNWwY9+g6w8ZHmePr2D2fdRmLIJIPYSIkdT/1qbpAwWOJpUndyv2XsFNO8HftdSsvZ36ILVbVV0sgqLNBkaNUiwUkElJVVUU6OefSsFcUGRmwsxFO8BoOXOPzEckgdFORP8+ZNoqSkWIqLCydfXx+ZlaeLNefn50O1tfXaZYvP2to6Wr7cPFXfIgECQAAEPIqAkfef8vrpxIkTZcPj4+MhqJ18CwvKC9utQS+oPHU6/sRotbWMsSHmL/LW0rg6/Fhh29au1u1hQyhbjq2a2bFBl7NdWVmlzSLz80ukoHIkr6seO5an0t1770I666yx7a5z+voa2xTU4uIKVSY8IAACnk9AfkPxsYOai4w0GWlo1935s6qySn0pdvQ844ryCvISIxd2NdW2haA1dgXCiKg9x0ZKmtt65FfKLG7bGMfdRqfcdja2cqVz5J7U1NgeQdbXm8+3DgszrbNzX+644wKaPXuc7BZPaR8+nEOZmfnEI112Y8cOoPj4KOnnE8jackVFZmOnttIhDgRAwDMISEGtra1VrfXz81P+7u5hAyxHjbAKC9sXxdb4NYr9n+25rJLjKgnv2+S1RFc4Pte5LedrtP/3w55+tlVXR+McuSe8H9SW04cfOZKjksyZM1762ZjoqqueIt52o3d///sNSlD14bb8jY1ts7aVB2EgAALuS0A+QusNckpKSty3tT2oZbwfVXNJUUmat8OfzWRe+7NnyrS2wfRw5ePta7OuID/zaM1mAg8LZMtcWy4hIVoG8yiUt7Sw45Gqtm3ml1/2tRBTTqNfQ+VrOBAAgZ5DQArq4MGDVY8decpXmeFxGgF+MwxvrWF31rCZ5ONtMnqxVYG3wdtWsAzjk4Y011vsSW3PFZxI7y2mK63XZU/rP544vDs5XuecMsVyi0p4eLBYNzUJqn6dUz8NnJzc0uKYp3tjY8O7Ex70BQRAoAMEDCNGjBCnv5gsSnkvZWZmZgeyI2lnEeDp0rd+elcWz2L67MKnKCmqj6qOD4DgPav/N/8Bev3al1W4tSezyHw/eb9q/9iUNo17+EhDzf1h9u3qxKWB4jCKG0/sB9Xiu8vngw9eTrz3k11oaCC98spdqmtvv23axsQBVVU1xEcDsmNDJbby5VfAsWNRfuKJ66Qf/4EACPRMAsZJkyapnv/444/y3agqAJ4uJcDn2vLZuXyGLx/399TFfxWnGzWJkWsd8d5TzXFYa44PSjiUf1icz9tPnJ4UQY9f8IhFUuujB3868DNdN/VqWT5bGvMxhlw+j0x5+lPzWxTi4Rc8Sn355bvk3lNNILlLvOf0s882WPTu00830CWXTJNhd955gTBSWiC31PBRgux4K4yfn+3pcpkA/4EACHRbAvJboL6+nlasWEFdec5ttyVso2PNJw6FtxHVIujRz/9Kr61bqqZ/Wdj0YsoHPHy7a2WLfPqAx794Uh4uXykOxmdRbMvxmiunrz2xVYXTcp08/fyPb//d4pAG67L0+zW1w++t01hfa4ZQraVvu8XWpXXseteuI+LIwWMyk15M+XCFxYv/1qKwJUu+oFWrtiqOfEQhiylz/eabzeJni8rTHmut3yoDPCAAAh5NwGvYsGHNfHRed3fucDj+yTIODwwXb2VJoTBxFi4f6ZchzrXlN7R0huN1WR7V8lnAfNgCr+l2Z8dTvWecMUpO6a5fv1MZIrXWZzZQGjNmACUmRtH27enEwgwHAiDQswngbTM9+/6j9yAAAiAAAk4i0L1MNp0EBcWAAAiAAAiAQEcJQFA7SgzpQQAEQAAEQMAGAQiqDSgIAgEQAAEQAIGOEoCgdpQY0oMACIAACICADQIQVBtQEAQCIAACIAACHSUAQe0oMaQHARAAARAAARsEIKg2oCAIBEAABEAABDpKAILaUWJIDwIgAAIgAAI2CPSYgx1s9B1BIAACIAACIOA0AhihOg0lCgIBEAABEOjJBCCoPfnuo+8gAAIgAAJOIwBBdRpKFAQCIAACINCTCUBQe/LdR99BAARAAAScRgCC6jSUKAgEQAAEQKAnEzD2tM6/82QeTRpVQ7V1XlRVbaC1W/3pLy9FUGEpni162u8C+gsCIAACziTQ41QkKKCJDF5EAX7NFBXeSAtmVtIXL+Q4kynKAgEQAAEQ6IEEvB544IFmfb9Xr15NWVlZ+qBu5ff1aabwkCYanlpH/7i7kCLDmmT/5t7ai3Ye8O1WfUVnQAAEQAAEXEfAEBgYSPofo7F7zwLX1XtRXpE3rd4UQE++Fq5Is8DCgQAIgAAIgICjBAxpaWkqb1NTE2VkZKjr7u45cNRHdbFPrwblhwcEQAAEQAAEOkrAsHPnTpXn8OHDxKLaU1yNMEzSnKHHrSZrPccnCIAACICAMwgYRo8ercrZvn278sMDAiAAAiAAAiBgPwFDv379ZOqqqioqKCiwP2c3Sxka1HNG5t3s1qE7IAACIOAWBAzCyYbs2bPHLRrkykZk5ZoNsCaPrnFl1agLBEAABECgmxFQK4f6tdRu1sdWu1NaYaDGRlN0cnyD2kLTagZEgAAIgAAIgEArBOQQLTc3l+rqeua2kRffD6PbF5eSl7BP2vxuFu0+5EM5Bd6UdtiX/vFmWCvYEAwCIAACIAAClgTkCPW3336zDO1BVyyaF/8xjvKLvclobKaRA+to9qRqWnxuRQ+igK6CAAiAAAicLAFjQ0MD8XaZnuquWVBOD99QLEeozeLMqPQMH8oUa6t7xEgVDgRAAARAAATsJWBMT0+3N223THfftSVSTLlzC++Jo593+HXLfqJTIAACIAACnUvA0JP3ngYHNhGf7cuOp3whpp37y4bSQQAEQKA7EzCUlJR05/612bckYdmruTXibF84EAABEAABEHCUgNo242gB3SUf3ofaXe4k+gECIAACXUOgRwuqd4/ufdf8wqFWEAABEOiuBHq0pMRHnzjVQdzdwpIejaK7/n6jXyAAAiDgMgI9WkUWzTHvNT1wFC8Xd9lvHSoCARAAgW5IwHyYbTfsnK0uPXpzMc05vYrCgpvIz9dk4Vvf4EW/7MR2GVu8EAYCIAACIGAfgR4nqCMH1VJspHmqt7Laix58PpKqa83vRrUPHVKBAAiAAAiAgJmAV1JSkmmYZg7r1r7TTqmlQX3rKDvfSIezjHTgGE5E6tY3HJ0DARAAARcR6HGC6iKuqAYEQAAEQKCHEejRRkk97F6juyAAAiAAAp1IAILaiXBRNAiAAAiAQM8hAEHtOfcaPQUBEAABEOhEAhDUToSLokEABEAABHoOAQhqz7nX6CkIgAAIgEAnEoCgdiJcFA0CIAACINBzCEBQe869Rk9BAARAAAQ6kQAEtRPhomgQAAEQAIGeQwCC2nPuNXoKAiAAAiDQiQQgqJ0IF0WDAAiAAAj0HAIQ1J5zr9FTEAABEACBTiQAQe1EuCgaBEAABECg5xCAoPace42eggAIgAAIdCIBCGonwkXRIAACIAACPYeA4dprr6VZs2aRv79/z+k1egoCIAACIAACTiZgMBqNlJKSQldccQUFBwc7uXgUBwIgAAIgAAI9g4ChtLRU9tRgMNCcOXN6Rq/RSxAAARAAARBwMgHDsmXLqLm5WRYbERFBXl5eTq4CxYEACIAACIBA9ydgqK+vp8LCQtXT0NBQ5YcHBEAABEAABEDAPgLSyjcoKEilrqysVH54QAAEQAAEQAAE7CNg6NWrFwUEBMjUvJ7a0NBgX06kAgEQAAEQAAEQUAQM8+fPlxdNTU20cuVKFQEPCIAACIAACICA/QSMnLS2tpbYOKm8vNz+nEgJAiAAAiAAAiCgCMg1VD8/P7r00kspLi5ORcADAiAAAiAAAiBgPwEDT/Pythlvb28677zziPejwoEACIAACIAACHSMgLcQ00d4hMqjUxbTqqoqys/P71gpSA0CIAACIAACPZyAHI4eOXJEYYiJiVF+eEAABEAABEAABOwjIAVVfzqSr6+vfTmRCgRAAARAAARAQBGQgpqamqoCMN2rUMADAiAAAiAAAnYTMAwfPpwGDx6sMqSnpys/PCAAAiAAAiAAAvYRMEyePFml3L59O/aiKhrwgAAIgAAIgID9BOTBDnxA/k8//UT79u2zPydSggAIgAAIgAAIKAJeI0aMaNbeiapC4QEBEAABEAABEOgQAfWC8Q7lQmIQAAEQAAEQAAELAjgWyQIHLkAABEAABEDAMQIQVMe4IRcIgAAIgAAIWBCAoFrgwAUIgAAIgAAIOEYAguoYN+QCARAAARAAAQsCEFQLHLgAARAAARAAAccIQFAd44ZcIAACIAACIGBBAIJqgQMXIAACIAACIOAYAQiqY9yQCwRAAARAAAQsCEBQLXDgAgRAAARAAAQcIwBBdYwbcoEACIAACICABQEIqgUOXIAACIAACICAYwQgqI5xQy4QAAEQAAEQsCAAQbXAgQsQAAEQAAEQcIwABNUxbsgFAiAAAiAAAhYEIKgWOHABAp5D4IX7C2jdG8fpsVuK22y0wYto9avZMu2M8dVtpkUkCICA4wSMjmdFTk8jMGJEP5o2bST17h1N3t6mZ6kPPviBtmzZ72ld6ZT2xsdH0jnnTKC+feMoIMBX1rF583768MMfOqW+kyl0yugaOm9alSwiPaPtP+OmZiJ/32ZKjGugZ/9USKMu7n0yVSMvCIBAKwSMl1xyCW3fvp3278eXaiuMukXw449fTZMmDWvRl7S0TAiqoHLRRVPpppvOIy8vMZzTudDQILcU1H/eUyhbWVvnRUuXh+habNv7z7fD6Jk/FlJEaBPdurCMXng/1HZChIIACDhMwBAREUHTp0+nsWPHOlwIMro3gfHjBysxbW5uptzcYtqz56j82bXrsHs33gWtCwz0pxtumKvEtKysSvHZsGGXC1rQsSp4ZBob2SgzfbwqyK7MH60Moqoa08PCLYtK7cqDRCAAAh0jYGxsbBTTf940btw4On78OGVnZ3esBKR2ewKzZpkflu6++yXatu2g27fZlQ0cPbq/mgL/6qtN9MwzH7qy+g7XddtlJkEUz0b0xP/C7c7//tfBdM2Ccgr0b5bTxV/8GGh3XiQEARBon4Bh2bJlKtWoUaOUH57uQyAhIUp2hkenENOW97Vfv3gVuGrVVuV3Rw+PTAf1rZdN+3mHP5VX2m9X+PTr4cTrqew0UTZd4X8QAAFnEDAWFxdTQUEBRUdHU58+feRolUet3dElTL6EvH38qTLnIBXt+8lmF32CwqnXqfNkXNG+DSJtukpn8PGjqKFTKTx1HPmFxZK3fzDVFB2nyuP7qXDveqrOP6rS2vLEn3YBGUWesoxdVJr+KwXEJFP0iBmyvOaGOirP2EOZa9+lxtpKW9ntDuMpzBtvnKvS9+kTo/x33XWR8rOHR2T79h1TYTyaZeOlwsIyWrp0JfH1GWeMpP79E2TY+vU76b331qj0nuq5+urZFBFhWnvk/mru/PMn08yZo7VL2rnzMNkSWaPRmxYvnilZxcdHUVVVDR04kEVffLGR9u4181QF6TwjR/anOXPGS6Zs/JSVVUi//ZYuuK6mJk3xdOn13ktnm383Pl/TsRFmda0XHcs2Ut+EBhqQbBJlfdnwgwAInBwBaR5YVFQkBZUNMnhNlQW2O7q4cXOlEDbV19KmJ+bb7GKvCQsoccqlMq708DaVxi88jkbfvlRda56A6D4UMXAC9T7jCjr23at0/KePtagWn0kzryEvbyMFCDEP7z+OWGD1Lrj3EArtN4p2vnyLPrjD/piYMJo797QW+fj+WofzeqFeUC+5ZJr8oq+ra5CfU6YMV+XExobTkCFJYnlgEP3xj0tUuCd6Fi2aQSyK1m7atFMsggYN6tNCUJOT4+i5526hkBBLQeOHjtmzx9H77/9Ar7zypUU52sWdd15I8+ZN1C7lJwvyuHEDacGCKXTbbS+IZZdCi3j9xYwJ5m0vv+7100fZ5c/IMQkqb6WZOLKGNv7mb1c+JAIBEGifQAt7++Dg4G4rqPnbvpXCxyPNsJTRVHrILJgaqpiRZ0pvY101lR3dqQVLIdQuqgsy5Gi0tjSP/EJjKGLwJPIyeFPSmddRU2MD5fzymZbU5mdIn6EUKfKwqysvpNqSHPIJiiD/yARhGGP/FJ7NwkVgSUmFHFlp8SwKvr5G4infXbuOaMHyk0dgthynZzGtra0TI64MCgrypwEDEmXS0aNTafDgJAshtlWGPWHPPPMMhYfbvw6Yl5dH999/vz1Ft5mGjY0iI02WromJ0cJvGq3yKLOmpk7l3bw5TfnZYxBK9N//3kH+/qZtNaWllcJCPlP0IZhSU/n+edGiRdMpJ6dIjlb1mS+//Ewlpnwv0tIyqLKyhgYO7CPEOUC2YcmSO2j+/If12Sz8A3UjywNHfSzi7LlIO+JDp4+pkUlnT6qGoNoDDWlAwE4CUlB5VKq5oCD7rAa19J70mbtlhRRUbjNP61oLqn9kIvmGmNYbC3f/aNG1hqpyyvv1KzklW1dmOYI3BoTQ2Lvek6KbOGVhu4LK08pNYop337sPUtmRHaoerj+s/xh1rfew4ZheeHhWgb+UbTn+kr/jjhdV1Msv3yW/7Ovr/7+9cwGOsrri+GHZPFkS8oKER0IQgxCgUC3yEKmCdULRIlAtWJyiRGDUVmecYbSFok6nlTIWyei0vmrRcQoMKgxQIVMHZQIURB4SMQghAUNC3mxC3o/ecz++x+5+u/slbJJN+N+ZZO+93319v93Zs/ecc8/X6lKvNfCSqaysoaVL/0L19Y2yBe9eV658QOaXLLmX1q5930tPIsdAB4WFKjuohoYGITh0VaWxU1pamtgpevyuMzZxycfGxrqUjQWrc3Kfl176QOuamTlXCMF7ZXndus0+d4hLlszWhCkL31WrNmpq2hkz0unll38jhery5XNdBCoLYmbGid83o3OYzWaj9957npKTB8td74MPTqedO81NEnyelBOrb/1oh2U793+nzio/BLh+aELfNO243zPKINBdBOwsTBMSErT5+rJAba67SnWlFyhycKqwW/6ExDcff7tp9544RbGdckXx4U+0es601Dspf9cmlzq10FJfQ5V5B6V9lYWllXT+07+6CFPu01ApdkfizyyFhIRIIaVeu3r1KrW0tKjFLnllb1dVmPIEW7d+QZmZP5cesUOG6D/CzCaPjo7WBGVIaIhXgXry5ElpZjAbw6zuypUrZtWyzuqcXgewcMGorl2z5p+aMOWuOTm5dO7cZbmT5x0n22ZVDcCMGeM1QXzqVL6Lc1hbW5sQ8Jvp3XeflytYtGimV4Fqtyuf18pqT3W1heWTUU0cNwgC1QoztAEBqwTsCxcudGnLO6G+nK58tZtS5z4td5MxaVOpKu+QdrvxE+6R+ebaKq8ORv1DIygu/W4KjxtBYYMGk82u7MIGJI3WxrHZQ+UOVKtwy7DTUcW3B9xqg694+PAZj0WxCpidnqKiXO2HHg0tVqxZs8Ziy+BoxoEeOFVVCY1FabXHovbuPaqpxtPShmsCddQo3ZN4167DHv0uXCih2tp6cjgU1a9HA7eKpk76FNXW6SYFVTi7DY0iCIBAJwnYWYBWVFRQXJyi6nQ6nZ0cqnd0KzuRTakZwulH7E5Z7asK1AGJt5A9QrGplZ7YZ3ozbCNNmvqQtJeaNrheyfZUX6mxutTX5aC41txsvvtltTEnM4eeoFh4Fy8iJER5b6urzVXYly6VaStgFa6ajPnCQvP3XxWoERHenY1YzcsORQmxberQHXqddJuivudO1U7fn9MODYzGIAACZM/Ly6P8/HwRwzRD4mBVYl9ObS2N5Lx4mqJSJlDUyIlCOApnnbYWSrxzvnbbJUd2aHk1M/zuR2no9OtHToSamB2W6ssvUkud8gNkkPD0ZaEskx/HInZm6mhqbm52UZt29dEmgya8o0uV7WucNRQaptjrGuoVJxizgVJSUsSO1/pul22xFy9eNBuKrM5p2tlCZUiIXdpHuanRccnYle3XalJ3s1w27uidTr2N2pZfGxuVbad7+EOXNiLUYERYOw2I6JxA/VGa7nBVWgmBamSLPAjcKAH7/v37ZZQkdaC+vkPl+7xydKcUqLyTZPVt+TefU+zYuyQCtmE211aqOLTXpOvClI/cHM9a5tEmTHjoagJV62WeaW/ruO2KBWh5maszlPnowVFr9XOUlZWl2VqtrJwdnBYsWGDa1Oqcpp0tVPKunR2KWOAZBaSxKx+BUdPly/rxl+Ji/TM1dGi8qbqY1b2cWlq8fz6Ky+w0anizNP8nxrdSSXnHhOK4Ubqu+Mhp7zth9R7wCgIgYJ2ANKikp6fLHvylXVNTY713L21ZeSaH2sXxFk58NpV3q2wb5cQ2VvfUP2yAdp2Fr5nAHTBklHs3lPsgAdVJKy5OMQ+43yKf01VTQUGJmqXCQt2Zavz4FK3emImOVuyzrPr1lnJO6ELw9nG6+tZbe/f6lKG6QN1zwLpmwH0clEEABDwJ2CdOnCi8D5XD3bm5uV6PYnh27b017e1tVPX9EXkWdKAIppA0TY8eVPr1fzxujFXCaoo0EZyOYWNE1CP9i1Rti1f/BJ566ikKC9OFhL8edXXKI8v8teuq65cvV8ojSHwOlY/JsGevMXFgBzWpHr5cNoZ8nDdvGn344X/VZvI1I2OKZpc22mFdGonC9mwHLZ1XK6tn3d5Au7/smFBMEVGSOFUIL+Fr9cIYiwQCIBAwArZp06bJwViVdezYsYANHOwDlfzv+rEYob7jSEecaovyiAM6uCdW86r1LDzjxs3UHJPYDjvusfXuXVC2SODSpUviqMk5y3/8AIeeTFlZ+nGqtWuXyshRvB520tqwYQWpu0wO2sDBHdSUn18sbL+lssgRp/i8Kp8/5cSBMp57Tve237hxu6w3+3f8u1Cqcir9HrzH3BZr1o/rfvmza9L+yvmt4ukzSCAAAoElIE/UszDdt28fNTXpDguBnSb4RmOnIhaSqqqXV1gibKveUpGIsZs85wl5+dZFvxeOTMLOxfY0EUqQEx+FYdUwUt8mwLvO3NwCSk8fSeyk9MYbv5U2T6PXc2trG61fv8UDBNdlZYkjW+JHHEehys5+lbitsS9HZuIjNL7Sh7sd9MxipxSOvFv9YJfDV3Pt2u8eVRwO2VP4dfF8VCQQAIHAErCx1+S2bduooKAgsCP3gtGM0ZBYQFac/sLrqi8f3CaCPXysBYJghyYWptzvcs4WKj4krmlJOXyvFd0zQuXcnYl/MHFiVbe/pAZn99ZWH8vPPfqbKIiut7bq96Len6/lcbzdnTsPaeYRo0Dkhwo89tirpkKRn0H7+OMbSPUEZsGq9uV5t2zZT6tXv+1rankt66Noam5R1LVPW3y2afroJhqRqKh79x+NkJGW/E6EBiAAAh0i0C85OVn/NulQ15uzMe9CHcPHiCD7iUJFfIbqrly4OUHgrmVc33HjUkREpFHCa7eKvvrqrCYs/eHhJ91wQPz4+ChhXz0v4gFfcom65K//c0uv0rO/VnacDz07xCUCklnff68vlcHw+UFSkx8eTldrFbWxWVvUgQAIdI4ABGrnuKEXCPQ4gVPbf6BoRxsdPBFOi1frQSTcF9ZfyM5zey7KgBDvfDyQXvlHjHsTlEEABAJAAAI1ABAxBAiAAAiAAAhA74PPAAiAAAiAAAgEgAAEagAgYggQAAEQAAEQgEDFZwAEQAAEQAAEAkAAAjUAEDEECIAACIAACECg4jMAAiAAAiAAAgEgAIEaAIgYAgRAAARAAAQgUPEZAAEQAAEQAIEAEIBADQBEDAECIAACIAACEKj4DIAACIAACIBAAAhAoAYAIoYAARAAARAAAQhUfAZAAARAAARAIAAEIFADABFDgAAIgAAIgAAEKj4DIAACIAACIBAAAhCoAYDYmSH4gc8H3r8s/+KifT/4+60/lsl2qx+v7sxU6AMCIAACINANBOzdMEfQT5GUFEsZGXfSyJFDKCIiVK736NGztHXr/i5b+xsvllNyUgs5xYOeK676/l1Tc80m26562Embdw6k4vL+XbYuDAwCIAACINA5AvYFCxbQyZMn6fz5850boZf3WrToblq16gHq16+fy51ERQ3oMoH6wKw6Sh3WIuf7lxCQ/tKf3o6hhXOuiTUSvfmHcnro2SH+uuA6CIAACIBANxOwJSQk0Jw5c2j8+PHdPHXPTxcZGU4rVszThKnTWUffflso/3JyTnfZAteurJJjt7YSbfooyu88lWIH+/WZMNnux2Mb5W7Vbyc0AAEQAAEQ6FYC9vb2dilQZsyYQeXl5VRSUtKtC+jJySZPvoX691fUrXv2HKENG7Z2+XImjWmiwbFCkoq092AkNTW77oy9LeDlv8fQjk3Ke/Pi8mpa+Uq8t6aoBwEQAAEQ6AECtoMHD2rTTp48WcvfDJnU1CTtNrOzj2n5rswYHYtYSFpNJ/JCqahUMXnfN7Xeaje0AwEQAAEQ6CYCdqOqd8SIEWLH1p9aWRfZR9OyZfdTTIxit5wwIVW7y/nzZ9Ds2foPim++uUBGITt2bLJwXJpCvKN/882dlJY2nObOnSJU5anU1NQi1cSbNn1Czc2KbVQb2C0z6bZGWVPltHXYuejAsXD6VUYt2e3tNH1SAx08Ee42OoogAAIgAAI9RcAeHR2tzc2OOYmJiVRUVKTV9bXM4sX3CoHk6SU7a9ZEl1sdM2aEi0C9664JNG/eVNmmurqWli69z6V9amoizZw5gR555BVqbGx2uaYWkuJbKTK8XRZLKjzXoLbz9nr6nOKBzNd/8dM6CFRvoFAPAiAAAj1AQOoQ6+vrxXGRCDm9w+HogWV035TsbBQbqzgCDRsWL/LKbvX774uooaFJW8jRo3la3j3DwpR3qmfP/iD78C6VbbFRUZH0xBMZcgfr3ofLGTPrtOqCohAtbzXz9Xe6QL0jXdnpWu2LdiAAAiAAAl1LwN7Y2Eg5OTnS05en6usC9aWXPtCIZmbOJd6xclq3bjMVF1do13xlWlvb6MknX6MLFxQnIRbMmzevls5drDZmlbBZGjFEVwefye+4QP0uXxeo0QN9B4Mwmx91IAACIAACXUfAlp2dTdeuXdNm6OsCVbvRG8h8/vlxTZjyMEVF5fKP8w6HstPnvHsaHKfbpk/mKcdg3Nv4Kgs5To1NildwZDgEqi9WuAYCIAAC3U3AxvZSoxOSzeY7ak93LzAY58vJyfVYVnn5VVlnZp9VG4eGKPZTLtfWWzsuo/ZVX1talX54m1QieAUBEACB4CAgpWd4uO4tWlen2/mCY4nBt4rCwisei6qvV+yv7hGXjA3LKnVHpIlpur3W2MZfXt2ZNjR2TiD7Gx/XQQAEQAAEOkdAClTVIYmHqK2t7dxIN1GvpiZzL15/CIwxeMeN6rhAHS5ssGqExNo6aBL88cZ1EAABEOhOAvJbOSZGDzAAgdp1+HOO65qA0SN0ByWrM94+ThfCZws77tRkdR60AwEQAAEQ6DgBKVBTUlK0nmVlZVoemcAS4Hi8asyMYQaPX6uzTLhVF6if5Xh3frI6HtqBAAiAAAgEjoBt4MCBNGjQIDliVVUVwYYaOLhmI124fv40PqZVRjwya+Ot7o70Bu3S7i8HaHlkQAAEQAAEep6Abf78+drTVk6dOtXzK+rjK3hruxJIwiZ8ip5Z7LR8t7HiIeQcWJ/TGXEe9VonvYQtT4iGIAACIAACHSJgi4yMlB34KTN5ed6jA3VoVDT2SmDLZw7tLOmy+TVe27lfeGF5leaQ9NpmPVykezuUQQAEQAAEeoaAjUPoFRQU0I4dO2Q4vZ5ZRs/M2tqqnwtlDr6S8TpHSnJP6nX11f26sbxlr6KujXa00f3T/T85hnez8+9RjjPxs1H3HYL91MgTeRAAARAIBgL9Ro4c2d7W5ikggmFxfXUN/AjW3E8vUURYO527GEKzM5N83uryBTW0ZoXyUPLMdQkQqD5p4SIIgAAI9AwBG4Rp94PnDe6f31EcwUYnN1OcsI/6SqpqOK8gBMLUFyhcAwEQAIEeJNAvOTnZt66zBxeHqUEABEAABECgtxBAuJ3e8k5hnSAAAiAAAkFNAAI1qN8eLA4EQAAEQKC3EIBA7S3vFNYJAiAAAiAQ1AQgUIP67cHiQAAEQAAEegsBCNTe8k5hnSAAAiAAAkFNAAI1qN8eLA4EQAAEQKC3EIBA7S3vFNYJAiAAAiAQ1ATsQb26AC5u4+t/cxntxRd+71JGAQRAAARAAARuhAB2qDdCD31BAARAAARA4DoBCFR8FEAABEAABEAgAAQgUAMAEUOAAAiAAAiAwP8B+/t16+sd53UAAAAASUVORK5CYII=;" vertex="1" parent="1">
                    <mxGeometry x="770" y="360" width="236.13" height="184.66" as="geometry"/>
                </mxCell>
            </root>
        </mxGraphModel>
    </diagram>
</mxfile>